if (_typeface_js && _typeface_js.loadFace) _typeface_js.loadFace({"glyphs":{"S":{"x_min":58.53125,"x_max":771.75,"ha":849,"o":"m 58 298 b 413 -26 58 81 209 -26 b 771 265 639 -26 771 81 b 174 724 771 652 216 466 b 413 945 157 827 225 945 b 654 727 539 945 654 880 l 743 727 b 413 1026 744 890 634 1026 b 81 758 194 1026 81 896 b 679 260 81 365 679 570 b 430 53 679 151 605 53 b 148 298 280 53 163 119 l 58 298 "},"¦":{"x_min":110.25,"x_max":191.921875,"ha":308,"o":"m 110 937 l 110 451 l 191 451 l 191 937 l 110 937 m 110 243 l 110 -243 l 191 -243 l 191 243 l 110 243 "},"/":{"x_min":-4,"x_max":392,"ha":386,"o":"m 392 1026 l 315 1026 l -4 -125 l 72 -125 l 392 1026 "},"y":{"x_min":25,"x_max":657,"ha":694,"o":"m 93 -273 b 170 -283 114 -279 142 -283 b 394 9 283 -283 327 -170 l 657 719 l 568 719 l 342 101 l 116 719 l 25 719 l 298 -5 b 161 -204 267 -68 253 -204 b 93 -195 138 -204 114 -200 l 93 -273 "},"≈":{"x_min":65,"x_max":704.71875,"ha":789,"o":"m 669 584 b 537 480 631 514 594 480 b 403 527 485 480 452 502 b 248 587 365 548 315 587 b 65 457 172 587 107 538 l 101 428 b 240 532 137 484 175 532 b 371 485 286 532 327 509 b 533 426 437 448 476 426 b 704 553 617 426 669 484 l 669 584 m 669 356 b 537 253 629 286 594 253 b 403 301 485 253 450 275 b 248 358 365 321 316 358 b 65 229 172 358 107 311 l 101 200 b 240 306 135 256 175 306 b 371 258 286 306 327 282 b 533 199 437 221 476 199 b 704 325 618 199 669 257 l 669 356 "},"Ž":{"x_min":42.015625,"x_max":787.984375,"ha":849,"o":"m 787 0 l 787 80 l 156 80 l 783 921 l 783 1000 l 95 1000 l 95 919 l 669 919 l 42 79 l 42 0 l 787 0 m 421 1129 l 310 1271 l 221 1271 l 376 1077 l 468 1077 l 621 1271 l 533 1271 l 421 1129 "},"Á":{"x_min":20.234375,"x_max":886,"ha":926,"o":"m 115 0 l 231 313 l 677 313 l 790 0 l 886 0 l 510 999 l 405 999 l 20 0 l 115 0 m 454 919 l 646 394 l 262 394 l 454 919 m 444 1077 l 631 1270 l 526 1270 l 375 1077 l 444 1077 "},"g":{"x_min":76.21875,"x_max":724.109375,"ha":849,"o":"m 642 356 b 404 55 642 194 552 55 b 163 381 235 55 156 201 b 404 663 164 562 266 663 b 642 356 558 663 642 530 m 642 593 l 639 593 b 394 738 592 687 484 738 b 76 361 167 738 76 573 b 390 -19 76 159 175 -19 b 642 115 490 -19 590 27 b 393 -219 646 -50 616 -219 b 182 -87 296 -219 206 -195 l 95 -87 b 393 -294 100 -173 186 -294 b 724 69 661 -294 724 -123 l 724 719 l 642 719 l 642 593 "},"²":{"x_min":20.421875,"x_max":432.828125,"ha":463,"o":"m 98 833 b 234 981 95 912 152 981 b 371 861 310 981 371 937 b 68 581 371 722 198 723 b 20 438 28 538 20 494 l 427 438 l 427 483 l 80 483 b 161 602 83 540 121 573 b 432 863 254 669 432 708 b 240 1026 432 954 366 1026 b 38 833 118 1026 38 950 l 98 833 "},"–":{"x_min":0,"x_max":680.5625,"ha":694,"o":"m 680 391 l 0 391 l 0 330 l 680 330 l 680 391 "},"ë":{"x_min":60.890625,"x_max":695.015625,"ha":772,"o":"m 148 409 b 384 663 164 545 240 663 b 607 409 531 663 607 550 l 148 409 m 695 340 b 384 738 696 598 577 738 b 60 356 183 738 60 566 b 384 -19 60 144 158 -19 b 689 220 564 -19 648 84 l 598 220 b 384 55 573 115 490 55 b 148 340 228 55 146 184 l 695 340 m 233 811 l 322 811 l 322 952 l 233 952 l 233 811 m 450 811 l 538 811 l 538 952 l 450 952 l 450 811 "},"ƒ":{"x_min":18,"x_max":734,"ha":772,"o":"m 734 991 b 638 1019 702 1009 674 1019 b 371 622 434 1019 408 776 l 207 622 l 207 555 l 361 555 l 321 330 b 114 -195 263 -1 222 -195 b 43 -177 83 -195 71 -194 l 18 -256 b 92 -272 41 -265 68 -272 b 362 88 265 -272 324 -106 l 449 555 l 616 555 l 616 622 l 460 622 b 601 940 493 745 497 922 b 661 941 627 945 646 944 b 706 923 678 937 691 931 l 734 991 "},"Î":{"x_min":-32.671875,"x_max":367.5,"ha":386,"o":"m 235 0 l 235 1000 l 142 1000 l 142 0 l 235 0 m 167 1219 l 279 1077 l 367 1077 l 213 1271 l 122 1271 l -32 1077 l 55 1077 l 167 1219 "},"e":{"x_min":60.890625,"x_max":695.015625,"ha":772,"o":"m 148 409 b 384 663 164 545 240 663 b 607 409 531 663 607 550 l 148 409 m 695 340 b 384 738 696 598 577 738 b 60 356 183 738 60 566 b 384 -19 60 144 158 -19 b 689 220 564 -19 648 84 l 598 220 b 384 55 573 115 490 55 b 148 340 228 55 146 184 l 695 340 "},"Ã":{"x_min":20.15625,"x_max":885.828125,"ha":926,"o":"m 115 0 l 231 313 l 677 313 l 790 0 l 885 0 l 510 999 l 405 999 l 20 0 l 115 0 m 454 919 l 646 394 l 262 394 l 454 919 m 297 1094 b 364 1162 308 1128 323 1162 b 563 1099 427 1162 488 1099 b 663 1182 614 1099 644 1138 b 674 1235 668 1199 673 1217 l 623 1235 b 563 1166 616 1202 602 1166 b 395 1225 515 1166 446 1216 b 276 1175 349 1237 303 1214 b 248 1094 262 1153 251 1127 l 297 1094 "},"J":{"x_min":29.9375,"x_max":564.859375,"ha":694,"o":"m 29 316 b 288 -26 29 138 68 -26 b 564 273 477 -26 564 80 l 564 1000 l 472 1000 l 472 276 b 299 59 472 136 426 59 b 122 316 127 59 121 191 l 29 316 "},"»":{"x_min":154.1875,"x_max":602.921875,"ha":772,"o":"m 602 407 l 404 562 l 404 475 l 545 364 l 404 250 l 404 163 l 602 320 l 602 407 m 352 407 l 154 562 l 154 475 l 295 364 l 154 250 l 154 163 l 352 320 l 352 407 "},"∆":{"x_min":44.96875,"x_max":834.40625,"ha":897,"o":"m 44 0 l 834 0 l 834 61 l 484 988 l 396 988 l 44 59 l 44 0 m 122 65 l 349 656 b 434 894 374 730 420 841 l 439 894 b 534 634 457 829 510 708 l 750 65 l 122 65 "},"©":{"x_min":28.578125,"x_max":1060.3125,"ha":1111,"o":"m 545 -26 b 1060 501 830 -26 1060 209 b 545 1026 1060 790 830 1026 b 28 501 259 1026 28 790 b 545 -26 28 209 259 -26 m 545 43 b 110 501 294 43 110 243 b 545 956 110 756 294 956 b 978 501 796 956 978 756 b 545 43 978 243 796 43 m 733 405 b 568 262 722 318 649 262 b 362 506 435 262 362 380 b 566 745 362 637 430 745 b 733 608 647 745 718 691 l 807 608 b 564 806 788 734 688 806 b 283 505 389 806 283 679 b 568 201 283 333 396 201 b 807 405 687 201 794 279 l 733 405 "},"˘":{"x_min":38.109375,"x_max":430.109375,"ha":463,"o":"m 38 980 b 227 805 46 870 119 805 b 430 980 338 805 417 863 l 379 980 b 234 868 360 902 310 868 b 91 980 159 868 106 904 l 38 980 "},"≥":{"x_min":72.140625,"x_max":699.609375,"ha":789,"o":"m 78 813 l 78 745 l 635 473 l 635 469 l 78 197 l 78 130 l 698 443 l 698 500 l 78 813 m 699 13 l 699 72 l 72 72 l 72 13 l 699 13 "},"ò":{"x_min":51.71875,"x_max":705.0625,"ha":772,"o":"m 378 -19 b 705 359 575 -19 705 131 b 378 738 705 570 598 738 b 51 359 160 738 51 569 b 378 -19 51 108 198 -16 m 617 359 b 378 55 617 205 549 55 b 138 359 221 55 138 180 b 378 663 138 515 206 663 b 617 359 551 663 616 529 m 401 797 l 470 797 l 319 990 l 213 990 l 401 797 "},"^":{"x_min":98.75,"x_max":797,"ha":917,"o":"m 177 340 l 445 885 l 719 340 l 797 340 l 482 969 l 411 969 l 98 340 l 177 340 "},"«":{"x_min":154.078125,"x_max":602.8125,"ha":772,"o":"m 404 317 l 602 163 l 602 249 l 461 360 l 602 474 l 602 562 l 404 404 l 404 317 m 154 317 l 352 163 l 352 249 l 211 360 l 352 474 l 352 562 l 154 404 l 154 317 "},"D":{"x_min":110.25,"x_max":910.578125,"ha":1003,"o":"m 445 0 b 792 122 574 0 702 19 b 910 501 882 222 910 369 b 747 925 910 634 876 829 b 445 1000 656 993 553 1000 l 110 1000 l 110 0 l 445 0 m 202 919 l 424 919 b 649 881 506 919 590 913 b 818 501 786 806 818 647 b 654 126 818 365 785 194 b 424 80 579 86 507 80 l 202 80 l 202 919 "},"∙":{"x_min":122.5,"x_max":254.53125,"ha":386,"o":"m 189 552 b 122 486 155 552 122 522 b 189 418 122 450 152 418 b 254 486 225 418 254 450 b 189 552 254 522 224 552 "},"ł":{"x_min":13.609375,"x_max":288.5625,"ha":308,"o":"m 191 0 l 191 541 l 288 597 l 288 680 l 191 625 l 191 1000 l 110 1000 l 110 555 l 13 500 l 13 416 l 110 472 l 110 0 l 191 0 "},"ÿ":{"x_min":24.5,"x_max":656.0625,"ha":694,"o":"m 92 -273 b 170 -283 114 -279 141 -283 b 393 9 283 -283 326 -170 l 656 719 l 567 719 l 341 101 l 115 719 l 24 719 l 298 -5 b 160 -204 266 -68 253 -204 b 92 -195 137 -204 114 -200 l 92 -273 m 196 811 l 284 811 l 284 952 l 196 952 l 196 811 m 412 811 l 500 811 l 500 952 l 412 952 l 412 811 "},"Ł":{"x_min":0,"x_max":728.203125,"ha":772,"o":"m 728 0 l 728 80 l 202 80 l 202 569 l 313 625 l 313 708 l 202 652 l 202 1000 l 110 1000 l 110 583 l 0 527 l 0 444 l 110 500 l 110 0 l 728 0 "},"í":{"x_min":44.921875,"x_max":300.8125,"ha":308,"o":"m 187 0 l 187 719 l 106 719 l 106 0 l 187 0 m 114 797 l 300 990 l 196 990 l 44 797 l 114 797 "},"ˆ":{"x_min":33,"x_max":433,"ha":463,"o":"m 233 938 l 344 796 l 433 796 l 279 990 l 188 990 l 33 796 l 121 796 l 233 938 "},"w":{"x_min":20,"x_max":962,"ha":1003,"o":"m 538 719 l 447 719 l 284 106 l 101 719 l 20 719 l 235 0 l 333 0 l 489 604 l 492 604 l 646 0 l 733 0 l 962 719 l 878 719 l 693 111 l 538 719 "},"$":{"x_min":50.359375,"x_max":705.0625,"ha":772,"o":"m 347 547 b 163 730 246 576 163 608 b 347 904 163 833 245 904 l 347 547 m 411 447 b 617 250 526 422 617 387 b 411 48 617 133 524 48 l 411 447 m 411 -26 b 705 234 553 -22 705 72 b 411 534 705 444 589 491 l 411 904 b 588 734 509 904 586 836 l 676 734 b 411 979 671 891 560 980 l 411 1063 l 348 1063 l 348 979 b 76 726 201 983 76 880 b 347 461 76 551 197 498 l 347 48 b 138 281 223 55 138 156 l 50 281 b 57 213 51 259 53 237 b 348 -26 89 59 196 -18 l 348 -131 l 411 -131 l 411 -26 "},"∫":{"x_min":14.96875,"x_max":447.8125,"ha":478,"o":"m 447 1150 b 377 1170 434 1159 402 1170 b 259 1119 334 1170 292 1155 b 190 834 208 1066 190 981 b 208 126 190 622 208 344 b 157 -119 208 -20 186 -83 b 93 -152 141 -140 117 -152 b 31 -134 66 -152 42 -140 l 14 -193 b 98 -216 29 -202 65 -216 b 219 -154 145 -216 191 -194 b 280 123 250 -109 280 -30 b 262 826 280 341 262 613 b 311 1077 262 962 274 1036 b 381 1109 330 1101 359 1109 b 431 1094 398 1109 420 1102 l 447 1150 "},"\\":{"x_min":-14.078125,"x_max":382,"ha":386,"o":"m 305 -125 l 382 -125 l 62 1026 l -14 1026 l 305 -125 "},"Ì":{"x_min":24.5,"x_max":281.75,"ha":386,"o":"m 235 0 l 235 1000 l 142 1000 l 142 0 l 235 0 m 212 1077 l 281 1077 l 130 1270 l 24 1270 l 212 1077 "},"µ":{"x_min":98,"x_max":657.421875,"ha":772,"o":"m 575 328 b 360 56 575 169 495 56 b 179 247 232 56 179 124 l 179 719 l 98 719 l 98 -282 l 179 -282 l 179 25 b 348 -19 215 3 272 -19 b 575 100 472 -19 532 50 l 575 0 l 657 0 l 657 719 l 575 719 l 575 328 "},"Ç":{"x_min":65.328125,"x_max":911.953125,"ha":1003,"o":"m 901 709 b 521 1026 869 916 722 1026 b 65 499 261 1026 65 881 b 451 -25 65 227 175 -7 l 387 -114 l 408 -132 b 468 -121 428 -126 447 -121 b 536 -175 502 -121 536 -137 b 446 -240 536 -222 485 -240 b 359 -219 416 -240 387 -229 l 338 -261 b 462 -287 378 -276 420 -287 b 612 -146 549 -287 630 -246 b 507 -73 607 -111 567 -73 b 458 -82 491 -73 475 -78 l 503 -25 b 911 328 755 -19 869 139 l 815 328 b 504 53 778 170 673 53 b 157 502 238 53 157 278 b 496 945 157 738 259 945 b 805 709 664 945 767 880 l 901 709 "},"’":{"x_min":108.890625,"x_max":208.25,"ha":308,"o":"m 208 1000 l 108 1000 l 108 877 l 155 877 l 155 830 b 108 738 155 775 130 752 l 108 687 b 208 836 166 705 208 755 l 208 1000 "},"-":{"x_min":54.4375,"x_max":398.8125,"ha":463,"o":"m 54 404 l 54 318 l 398 318 l 398 404 l 54 404 "},"Q":{"x_min":65.328125,"x_max":978.640625,"ha":1081,"o":"m 831 95 b 978 499 929 192 978 338 b 517 1027 978 839 792 1027 b 65 499 212 1027 65 777 b 521 -25 65 211 219 -25 b 766 42 617 -25 699 0 l 910 -71 l 962 -7 l 831 95 m 631 252 l 582 186 l 694 99 b 522 54 647 71 590 54 b 157 499 266 54 157 261 b 519 946 157 729 268 946 b 886 499 729 946 886 798 b 763 149 886 360 846 229 l 631 252 "},"M":{"x_min":106.171875,"x_max":1027.640625,"ha":1157,"o":"m 198 0 l 198 891 l 201 891 l 524 0 l 611 0 l 932 891 l 935 891 l 935 0 l 1027 0 l 1027 1000 l 887 1000 l 571 118 l 568 118 l 247 1000 l 106 1000 l 106 0 l 198 0 "},"C":{"x_min":65.328125,"x_max":911.953125,"ha":1003,"o":"m 901 709 b 521 1026 869 916 722 1026 b 65 500 261 1026 65 881 b 487 -26 65 216 185 -26 b 911 329 749 -26 868 136 l 815 329 b 504 54 778 170 673 54 b 157 502 238 54 157 279 b 496 945 157 738 259 945 b 805 709 664 945 767 880 l 901 709 "},"œ":{"x_min":48.484375,"x_max":1230.015625,"ha":1311,"o":"m 1230 340 b 930 738 1230 547 1176 738 b 651 565 799 738 711 681 b 368 738 592 686 500 738 b 48 358 145 738 48 568 b 362 -19 48 127 175 -19 b 651 155 486 -19 595 38 b 930 -19 700 55 797 -19 b 1220 222 1078 -19 1187 65 l 1137 222 b 933 55 1115 122 1036 55 b 695 340 746 55 684 237 l 1230 340 m 135 345 b 361 663 130 541 214 663 b 607 373 524 663 607 541 b 369 55 607 186 524 55 b 135 345 211 55 134 188 m 695 409 b 926 663 701 547 787 663 b 1142 409 1077 663 1142 555 l 695 409 "},"!":{"x_min":176.9375,"x_max":276.3125,"ha":463,"o":"m 196 251 l 257 251 l 276 688 l 276 1000 l 176 1000 l 176 688 l 196 251 m 276 0 l 276 122 l 176 122 l 176 0 l 276 0 "},"ç":{"x_min":63.96875,"x_max":691.453125,"ha":772,"o":"m 680 492 b 387 738 656 659 549 738 b 63 357 176 738 63 557 b 345 -15 63 159 151 2 l 274 -114 l 295 -132 b 355 -121 315 -126 334 -121 b 423 -175 389 -121 423 -137 b 333 -240 423 -222 372 -240 b 246 -219 303 -240 274 -229 l 225 -261 b 349 -287 265 -276 307 -287 b 499 -146 436 -287 517 -246 b 394 -73 494 -111 454 -73 b 345 -82 378 -73 362 -78 l 394 -19 b 691 248 567 -15 662 91 l 604 248 b 387 55 585 128 509 55 b 151 357 219 55 151 206 b 387 663 151 507 220 663 b 597 492 496 663 568 599 l 680 492 "},"È":{"x_min":110.25,"x_max":775.828125,"ha":849,"o":"m 775 0 l 775 80 l 202 80 l 202 477 l 707 477 l 707 558 l 202 558 l 202 919 l 762 919 l 762 1000 l 110 1000 l 110 0 l 775 0 m 438 1077 l 507 1077 l 356 1270 l 250 1270 l 438 1077 "},"ﬁ":{"x_min":17.6875,"x_max":592.078125,"ha":694,"o":"m 125 649 l 125 0 l 206 0 l 206 649 l 340 649 l 340 719 l 206 719 l 206 808 b 294 944 206 873 209 944 b 343 937 308 944 326 941 l 343 1013 b 274 1019 321 1017 299 1019 b 125 833 166 1019 125 947 l 125 719 l 17 719 l 17 649 l 125 649 m 588 0 l 588 719 l 506 719 l 506 0 l 588 0 m 592 999 l 502 999 l 502 876 l 592 876 l 592 999 "},"{":{"x_min":61.25,"x_max":379.75,"ha":463,"o":"m 172 548 b 61 381 172 456 161 411 l 61 379 b 172 218 153 361 172 302 l 172 -65 b 379 -265 172 -206 219 -268 l 379 -262 b 259 -94 294 -237 259 -187 l 259 191 b 148 379 259 295 238 358 l 148 381 b 259 588 243 408 259 481 l 259 855 b 370 1023 259 941 295 997 b 172 801 213 1029 172 965 l 172 548 "},"X":{"x_min":25,"x_max":806,"ha":849,"o":"m 699 0 l 806 0 l 469 513 l 791 1000 l 683 1000 l 414 579 l 146 1000 l 38 1000 l 362 513 l 25 0 l 129 0 l 414 441 l 699 0 "},"ô":{"x_min":51.71875,"x_max":705.0625,"ha":772,"o":"m 378 -19 b 705 359 575 -19 705 131 b 378 738 705 570 598 738 b 51 359 160 738 51 569 b 378 -19 51 108 198 -16 m 617 359 b 378 55 617 205 549 55 b 138 359 221 55 138 180 b 378 663 138 515 206 663 b 617 359 551 663 616 528 m 385 938 l 496 796 l 585 796 l 431 990 l 340 990 l 185 796 l 273 796 l 385 938 "},"¼":{"x_min":54.4375,"x_max":1080.71875,"ha":1158,"o":"m 937 0 l 994 0 l 994 144 l 1080 144 l 1080 189 l 994 189 l 994 581 l 943 581 l 653 189 l 653 144 l 937 144 l 937 0 m 937 501 l 937 189 l 709 189 l 937 501 m 298 -19 l 902 978 l 833 978 l 228 -19 l 298 -19 m 215 438 l 272 438 l 272 1026 l 227 1026 b 54 910 208 924 149 916 l 54 874 l 215 874 l 215 438 "},"#":{"x_min":37.0625,"x_max":721.953125,"ha":772,"o":"m 686 398 l 547 398 l 574 593 l 721 593 l 721 675 l 585 675 l 628 969 l 547 969 l 505 675 l 320 675 l 363 969 l 282 969 l 238 675 l 75 675 l 75 593 l 227 593 l 199 398 l 37 398 l 37 316 l 186 316 l 140 0 l 220 0 l 267 316 l 453 316 l 411 0 l 491 0 l 535 316 l 686 316 l 686 398 m 494 593 l 467 398 l 279 398 l 309 593 l 494 593 "},"Ê":{"x_min":110.25,"x_max":775.828125,"ha":849,"o":"m 775 0 l 775 80 l 202 80 l 202 477 l 707 477 l 707 558 l 202 558 l 202 919 l 762 919 l 762 1000 l 110 1000 l 110 0 l 775 0 m 421 1219 l 533 1077 l 622 1077 l 468 1271 l 377 1271 l 221 1077 l 310 1077 l 421 1219 "},")":{"x_min":76.21875,"x_max":378.390625,"ha":463,"o":"m 145 -265 b 378 377 292 -65 378 123 b 145 1026 378 641 295 815 l 76 1026 b 284 384 201 836 284 615 b 76 -265 284 151 205 -73 l 145 -265 "},"Å":{"x_min":20.421875,"x_max":886.078125,"ha":926,"o":"m 115 0 l 231 313 l 677 313 l 790 0 l 886 0 l 510 999 l 405 999 l 20 0 l 115 0 m 454 919 l 646 394 l 262 394 l 454 919 m 481 1082 b 616 1220 555 1082 616 1145 b 481 1359 616 1294 555 1359 b 345 1220 409 1359 345 1294 b 481 1082 345 1145 408 1082 m 481 1128 b 390 1220 434 1128 390 1170 b 481 1313 390 1270 432 1313 b 571 1220 530 1313 571 1269 b 481 1128 571 1171 529 1128 "},"ø":{"x_min":47.109375,"x_max":709.453125,"ha":772,"o":"m 183 172 b 141 358 160 209 141 272 b 381 664 141 514 209 664 b 537 601 461 664 513 630 l 183 172 m 578 551 b 620 358 611 497 620 429 b 381 55 620 204 552 55 b 220 118 323 55 261 76 l 578 551 m 169 57 b 381 -19 209 19 280 -19 b 708 358 589 -19 708 134 b 634 618 708 459 683 551 l 709 708 l 661 751 l 590 665 b 381 739 537 712 468 739 b 53 358 162 739 53 568 b 126 102 53 261 75 170 l 47 8 l 96 -31 l 169 57 "},"â":{"x_min":62.296875,"x_max":726.53125,"ha":772,"o":"m 559 265 b 301 55 559 119 431 55 b 149 184 224 55 149 97 b 348 337 149 281 224 327 b 559 377 418 343 489 348 l 559 265 m 308 404 b 62 187 143 381 62 308 b 297 -19 62 48 173 -19 b 560 100 399 -19 492 22 b 625 -6 561 50 571 1 b 662 -11 638 -9 648 -11 b 726 2 685 -11 714 -1 l 726 68 b 640 123 657 43 640 58 l 640 515 b 384 738 640 681 527 738 b 94 501 231 738 107 670 l 178 501 b 383 663 192 626 270 663 b 559 517 510 663 559 602 b 529 442 559 492 556 455 b 421 419 501 430 451 422 l 308 404 m 384 938 l 496 797 l 584 797 l 431 990 l 339 990 l 184 797 l 273 797 l 384 938 "},"}":{"x_min":69.421875,"x_max":387.921875,"ha":463,"o":"m 276 831 b 69 1031 276 973 230 1034 l 69 1029 b 189 861 155 1004 189 954 l 189 575 b 300 387 189 470 210 408 l 300 384 b 189 177 205 358 189 284 l 189 -88 b 78 -256 189 -175 153 -230 b 276 -34 235 -262 276 -198 l 276 218 b 387 384 276 309 287 355 l 387 387 b 276 548 295 405 276 463 l 276 831 "},"‰":{"x_min":19.0625,"x_max":1340.703125,"ha":1389,"o":"m 1137 415 b 933 206 1027 415 933 319 b 1137 0 933 93 1026 0 b 1340 206 1249 0 1340 93 b 1137 415 1340 319 1249 415 m 1137 79 b 1011 206 1071 79 1011 138 b 1137 336 1011 276 1069 336 b 1263 206 1204 336 1263 275 b 1137 79 1263 140 1203 79 m 221 969 b 19 762 111 969 19 875 b 221 554 19 650 110 554 b 426 762 333 554 426 647 b 221 969 426 876 332 969 m 221 890 b 348 762 288 890 349 830 b 221 633 348 694 288 633 b 96 762 155 633 96 694 b 221 890 96 830 153 890 m 643 415 b 441 206 533 415 441 319 b 643 0 441 94 532 0 b 847 206 755 0 847 91 b 643 415 847 320 754 415 m 643 79 b 518 206 578 79 518 138 b 643 336 518 275 575 336 b 770 206 711 336 770 275 b 643 79 770 138 709 79 m 189 -19 l 743 979 l 671 979 l 117 -19 l 189 -19 "},"Ä":{"x_min":20.421875,"x_max":886.078125,"ha":926,"o":"m 115 0 l 231 313 l 677 313 l 790 0 l 886 0 l 510 999 l 405 999 l 20 0 l 115 0 m 454 919 l 646 394 l 262 394 l 454 919 m 308 1091 l 397 1091 l 397 1232 l 308 1232 l 308 1091 m 525 1091 l 613 1091 l 613 1232 l 525 1232 l 525 1091 "},"¸":{"x_min":73.5,"x_max":349.546875,"ha":463,"o":"m 73 -261 b 197 -287 112 -276 155 -287 b 347 -146 284 -287 364 -246 b 242 -73 341 -111 302 -73 b 193 -82 225 -73 209 -78 l 257 0 l 204 0 l 122 -114 l 142 -132 b 202 -121 163 -126 182 -121 b 270 -175 236 -121 270 -137 b 181 -240 270 -222 220 -240 b 93 -219 151 -240 122 -229 l 73 -261 "},"a":{"x_min":62.609375,"x_max":726.828125,"ha":772,"o":"m 559 265 b 302 55 559 119 431 55 b 149 184 224 55 149 97 b 348 337 149 282 224 327 b 559 377 419 343 490 348 l 559 265 m 308 404 b 62 187 144 382 62 308 b 298 -19 62 48 174 -19 b 560 100 400 -19 492 22 b 626 -6 562 50 571 1 b 662 -11 638 -9 649 -11 b 726 2 686 -11 714 -1 l 726 68 b 641 123 657 43 641 58 l 641 515 b 385 738 641 682 528 738 b 95 501 231 738 107 670 l 178 501 b 383 663 193 626 270 663 b 559 518 510 663 559 602 b 529 443 559 493 556 455 b 421 419 502 430 451 422 l 308 404 "},"—":{"x_min":0,"x_max":1361.109375,"ha":1389,"o":"m 1361 330 l 1361 391 l 0 391 l 0 330 l 1361 330 "},"=":{"x_min":108.890625,"x_max":789.453125,"ha":917,"o":"m 789 525 l 108 525 l 108 441 l 789 441 l 789 525 m 789 255 l 108 255 l 108 172 l 789 172 l 789 255 "},"N":{"x_min":107.53125,"x_max":873.828125,"ha":1003,"o":"m 766 0 l 873 0 l 873 1000 l 781 1000 l 781 126 l 778 126 l 212 1000 l 107 1000 l 107 0 l 200 0 l 200 872 l 202 872 l 766 0 "},"˚":{"x_min":91.1875,"x_max":362.0625,"ha":463,"o":"m 227 802 b 362 940 300 802 362 865 b 227 1079 362 1013 300 1079 b 91 940 155 1079 91 1013 b 227 802 91 865 153 802 m 227 848 b 136 940 179 848 136 890 b 227 1033 136 990 178 1033 b 317 940 276 1033 317 988 b 227 848 317 891 274 848 "},"ú":{"x_min":98,"x_max":657.421875,"ha":772,"o":"m 575 327 b 360 55 575 169 495 55 b 179 247 232 55 179 123 l 179 719 l 98 719 l 98 245 b 348 -19 98 95 160 -19 b 575 100 472 -19 532 50 l 575 0 l 657 0 l 657 719 l 575 719 l 575 327 m 370 797 l 556 990 l 451 990 l 300 797 l 370 797 "},"⁄":{"x_min":-222.75,"x_max":451,"ha":232,"o":"m -153 -19 l 451 979 l 381 979 l -222 -19 l -153 -19 "},"2":{"x_min":65.328125,"x_max":700.96875,"ha":772,"o":"m 186 658 b 394 904 181 790 269 904 b 605 702 513 904 605 830 b 140 238 605 472 340 475 b 65 0 78 166 66 93 l 692 0 l 692 75 l 157 75 b 283 272 161 168 220 223 b 700 708 426 383 700 448 b 405 979 700 858 598 979 b 93 658 216 979 93 851 l 186 658 "},"ü":{"x_min":98,"x_max":657.421875,"ha":772,"o":"m 575 327 b 360 55 575 169 495 55 b 179 247 232 55 179 123 l 179 719 l 98 719 l 98 245 b 348 -19 98 95 160 -19 b 575 100 472 -19 532 50 l 575 0 l 657 0 l 657 719 l 575 719 l 575 327 m 234 811 l 322 811 l 322 952 l 234 952 l 234 811 m 450 811 l 539 811 l 539 952 l 450 952 l 450 811 "},"¯":{"x_min":31.3125,"x_max":434.1875,"ha":463,"o":"m 31 850 l 434 850 l 434 912 l 31 912 l 31 850 "},"Z":{"x_min":42.015625,"x_max":787.984375,"ha":849,"o":"m 787 0 l 787 80 l 156 80 l 783 920 l 783 1000 l 95 1000 l 95 919 l 669 919 l 42 79 l 42 0 l 787 0 "},"u":{"x_min":98,"x_max":657.421875,"ha":772,"o":"m 575 327 b 360 55 575 169 495 55 b 179 247 232 55 179 123 l 179 719 l 98 719 l 98 245 b 348 -19 98 95 160 -19 b 575 100 472 -19 532 50 l 575 0 l 657 0 l 657 719 l 575 719 l 575 327 "},"˜":{"x_min":21.78125,"x_max":447.8125,"ha":463,"o":"m 70 813 b 137 881 81 848 96 881 b 336 819 200 881 261 819 b 436 902 387 819 417 858 b 447 955 441 919 446 937 l 396 955 b 336 886 389 922 375 886 b 168 945 288 886 219 936 b 49 895 122 956 76 934 b 21 813 35 873 24 847 l 70 813 "},"Ó":{"x_min":72.125,"x_max":985.453125,"ha":1081,"o":"m 72 498 b 528 -26 72 211 225 -26 b 985 498 830 -26 985 211 b 524 1026 985 791 830 1026 b 72 498 231 1026 70 790 m 529 54 b 164 498 273 54 164 262 b 526 945 164 730 274 945 b 892 498 752 945 892 776 b 529 54 892 265 784 54 m 521 1077 l 707 1270 l 602 1270 l 451 1077 l 521 1077 "},"k":{"x_min":92.5625,"x_max":662.859375,"ha":694,"o":"m 174 0 l 174 272 l 307 401 l 571 0 l 662 0 l 367 459 l 631 719 l 519 719 l 174 377 l 174 1000 l 92 1000 l 92 0 l 174 0 "},"ˇ":{"x_min":33,"x_max":433,"ha":463,"o":"m 233 848 l 121 990 l 33 990 l 188 796 l 279 796 l 433 990 l 344 990 l 233 848 "},"Ù":{"x_min":111.609375,"x_max":871.109375,"ha":1003,"o":"m 111 376 b 491 -26 111 120 235 -26 b 871 376 744 -26 871 116 l 871 1000 l 778 1000 l 778 404 b 491 54 778 168 702 54 b 204 404 291 54 204 156 l 204 1000 l 111 1000 l 111 376 m 514 1077 l 583 1077 l 432 1270 l 326 1270 l 514 1077 "},"Ÿ":{"x_min":16.328125,"x_max":813.953125,"ha":849,"o":"m 122 1000 l 16 1000 l 366 429 l 366 0 l 458 0 l 458 436 l 813 1000 l 706 1000 l 411 518 l 122 1000 m 270 1091 l 359 1091 l 359 1233 l 270 1233 l 270 1091 m 487 1091 l 575 1091 l 575 1233 l 487 1233 l 487 1091 "},"€":{"x_min":25.859375,"x_max":728.203125,"ha":772,"o":"m 25 327 l 142 327 b 464 -19 181 65 318 -19 b 691 90 558 -19 641 25 l 691 206 b 464 55 635 113 556 55 b 231 327 325 55 255 168 l 548 327 l 575 402 l 223 402 b 220 480 221 427 220 454 b 221 538 220 500 221 519 l 624 538 l 651 613 l 228 613 b 464 904 250 783 321 904 b 690 712 566 904 657 850 l 728 818 b 464 979 699 884 634 979 b 141 613 315 979 174 890 l 54 613 l 28 538 l 134 538 b 133 479 133 519 133 500 b 136 402 133 452 134 427 l 53 402 l 25 327 "},"¢":{"x_min":61.25,"x_max":688.71875,"ha":772,"o":"m 259 94 b 148 358 182 146 148 253 b 385 663 148 508 217 663 b 441 657 404 663 423 662 l 259 94 m 499 633 b 594 493 545 604 578 555 l 677 493 b 525 712 661 604 608 676 l 585 898 l 519 898 l 465 732 b 385 738 441 736 413 738 b 61 358 200 738 61 602 b 234 12 61 201 115 71 l 167 -195 l 231 -195 l 292 -8 b 385 -19 321 -14 351 -19 b 688 248 564 -19 668 105 l 601 248 b 385 55 582 129 506 55 b 315 65 360 55 337 60 l 499 633 "},"Ω":{"x_min":72.140625,"x_max":914.671875,"ha":1007,"o":"m 281 66 l 72 66 l 72 0 l 389 0 l 389 48 b 170 501 279 119 170 293 b 496 909 170 726 296 909 b 816 504 707 909 816 687 b 597 48 816 281 707 122 l 597 0 l 914 0 l 914 66 l 702 66 l 702 70 b 895 516 797 148 895 308 b 498 977 895 765 736 977 b 91 511 270 977 91 791 b 281 70 91 312 181 159 l 281 66 "},"ß":{"x_min":70.78125,"x_max":624.75,"ha":694,"o":"m 287 520 b 537 276 460 520 537 451 b 287 61 537 111 420 36 l 287 -12 b 337 -19 299 -16 319 -19 b 624 311 517 -19 624 95 b 473 559 624 415 575 523 b 588 761 543 611 588 672 b 325 1019 588 922 481 1019 b 70 755 153 1019 70 926 l 70 0 l 152 0 l 152 740 b 329 944 152 862 170 944 b 500 762 450 944 500 866 b 287 590 500 634 408 593 l 287 520 "},"é":{"x_min":60.890625,"x_max":695.015625,"ha":772,"o":"m 148 409 b 384 663 164 545 240 663 b 607 409 531 663 607 550 l 148 409 m 695 340 b 384 738 696 598 577 738 b 60 356 183 738 60 566 b 384 -19 60 144 158 -19 b 689 220 564 -19 648 84 l 598 220 b 384 55 573 115 490 55 b 148 340 228 55 146 184 l 695 340 m 369 797 l 556 990 l 451 990 l 300 797 l 369 797 "},"s":{"x_min":62.6875,"x_max":618.03125,"ha":694,"o":"m 62 224 b 330 -19 69 88 164 -19 b 618 190 496 -19 618 52 b 166 539 618 466 166 344 b 325 663 166 613 221 663 b 515 511 427 663 500 623 l 598 511 b 326 738 578 674 479 738 b 79 532 170 738 79 652 b 530 188 79 249 530 396 b 356 55 530 119 475 55 b 145 224 234 55 171 101 l 62 224 "},"B":{"x_min":110.25,"x_max":830.28125,"ha":926,"o":"m 202 477 l 449 477 b 737 281 623 477 737 447 b 438 80 737 108 642 80 l 202 80 l 202 477 m 202 919 l 416 919 b 692 748 619 919 692 873 b 436 558 692 627 630 558 l 202 558 l 202 919 m 510 0 b 830 281 696 0 830 73 b 628 530 830 413 763 509 l 628 533 b 785 748 707 547 785 609 b 464 1000 785 898 694 1000 l 110 1000 l 110 0 l 510 0 "},"…":{"x_min":178.3125,"x_max":1184.171875,"ha":1389,"o":"m 277 0 l 277 122 l 178 122 l 178 0 l 277 0 m 730 0 l 730 122 l 631 122 l 631 0 l 730 0 m 1184 0 l 1184 122 l 1084 122 l 1084 0 l 1184 0 "},"?":{"x_min":50.75,"x_max":642.453125,"ha":694,"o":"m 372 254 b 401 419 372 309 371 370 b 642 766 480 547 642 605 b 345 1027 642 923 530 1027 b 51 718 168 1027 38 902 l 134 718 b 343 952 130 850 209 952 b 555 773 477 952 555 873 b 368 512 555 670 447 597 b 294 254 298 436 292 355 l 372 254 m 385 1 l 385 123 l 285 123 l 285 1 l 385 1 "},"H":{"x_min":108.890625,"x_max":873.828125,"ha":1003,"o":"m 201 0 l 201 490 l 781 490 l 781 0 l 873 0 l 873 1000 l 781 1000 l 781 570 l 201 570 l 201 1000 l 108 1000 l 108 0 l 201 0 "},"î":{"x_min":-70.78125,"x_max":329.390625,"ha":308,"o":"m 187 0 l 187 719 l 106 719 l 106 0 l 187 0 m 129 938 l 240 796 l 329 796 l 175 990 l 84 990 l -70 796 l 17 796 l 129 938 "},"c":{"x_min":63.96875,"x_max":691.453125,"ha":772,"o":"m 680 493 b 387 738 656 659 549 738 b 63 358 176 738 63 558 b 387 -19 63 145 163 -19 b 691 248 564 -19 662 88 l 604 248 b 387 55 585 129 509 55 b 151 358 219 55 151 206 b 387 663 151 508 220 663 b 597 493 496 663 568 600 l 680 493 "},"¶":{"x_min":89.828125,"x_max":688.71875,"ha":903,"o":"m 351 -202 l 432 -202 l 432 906 l 607 906 l 607 -202 l 688 -202 l 688 1000 l 393 1000 b 89 730 202 1000 89 902 b 351 466 89 587 212 465 l 351 -202 "},"−":{"x_min":108.890625,"x_max":789.453125,"ha":917,"o":"m 108 305 l 789 305 l 789 388 l 108 388 l 108 305 "},"≠":{"x_min":70.953125,"x_max":701.046875,"ha":789,"o":"m 541 691 l 498 713 l 423 551 l 70 551 l 70 495 l 401 495 l 306 287 l 70 287 l 70 231 l 281 231 l 216 87 l 260 65 l 336 231 l 701 231 l 701 287 l 359 287 l 454 495 l 701 495 l 701 551 l 477 551 l 541 691 "},"•":{"x_min":95.28125,"x_max":585.28125,"ha":694,"o":"m 585 498 b 338 750 585 637 475 750 b 95 498 205 750 95 637 b 338 250 95 362 205 250 b 585 498 475 250 585 362 "},"¥":{"x_min":5.4375,"x_max":751.328125,"ha":772,"o":"m 108 1000 l 5 1000 l 238 602 l 87 602 l 87 527 l 283 527 l 334 436 l 334 377 l 87 377 l 87 302 l 334 302 l 334 0 l 421 0 l 421 302 l 669 302 l 669 377 l 421 377 l 421 436 l 473 527 l 669 527 l 669 602 l 518 602 l 751 1000 l 651 1000 l 377 518 l 108 1000 "},"(":{"x_min":74.859375,"x_max":377.03125,"ha":463,"o":"m 307 1026 b 74 383 160 826 74 637 b 307 -265 74 119 157 -54 l 377 -265 b 168 376 251 -75 168 145 b 377 1026 168 609 247 834 l 307 1026 "},"U":{"x_min":111.609375,"x_max":871.109375,"ha":1003,"o":"m 111 376 b 491 -26 111 120 235 -26 b 871 376 744 -26 871 116 l 871 1000 l 778 1000 l 778 404 b 491 54 778 168 702 54 b 204 404 291 54 204 156 l 204 1000 l 111 1000 l 111 376 "},"◊":{"x_min":76,"x_max":691,"ha":785,"o":"m 691 480 l 416 1023 l 352 1023 l 76 480 l 350 -61 l 414 -61 l 691 480 m 617 477 l 410 72 b 386 5 401 54 390 22 l 382 5 b 357 73 378 22 369 45 l 148 481 l 354 884 b 380 954 365 909 375 933 l 383 954 b 409 884 388 936 399 906 l 617 477 "},"Ñ":{"x_min":107.53125,"x_max":873.828125,"ha":1003,"o":"m 766 0 l 873 0 l 873 1000 l 781 1000 l 781 126 l 778 126 l 212 1000 l 107 1000 l 107 0 l 200 0 l 200 872 l 202 872 l 766 0 m 336 1094 b 402 1162 347 1129 362 1162 b 601 1100 465 1162 526 1100 b 702 1183 653 1100 683 1138 b 713 1236 706 1200 711 1218 l 661 1236 b 601 1166 654 1202 641 1166 b 434 1226 553 1166 484 1216 b 314 1176 387 1237 341 1215 b 287 1094 300 1154 289 1127 l 336 1094 "},"F":{"x_min":100.71875,"x_max":732.28125,"ha":772,"o":"m 193 0 l 193 477 l 683 477 l 683 558 l 193 558 l 193 919 l 732 919 l 732 1000 l 100 1000 l 100 0 l 193 0 "},"­":{"x_min":54.4375,"x_max":398.8125,"ha":463,"o":"m 54 404 l 54 318 l 398 318 l 398 404 l 54 404 "},":":{"x_min":138.828125,"x_max":238.1875,"ha":386,"o":"m 238 0 l 238 122 l 138 122 l 138 0 l 238 0 m 238 561 l 238 683 l 138 683 l 138 561 l 238 561 "},"Û":{"x_min":111.609375,"x_max":871.109375,"ha":1003,"o":"m 111 376 b 491 -26 111 121 235 -26 b 871 376 744 -26 871 116 l 871 1000 l 778 1000 l 778 404 b 491 54 778 168 702 54 b 204 404 291 54 204 157 l 204 1000 l 111 1000 l 111 376 m 498 1219 l 609 1077 l 698 1077 l 544 1271 l 453 1271 l 298 1077 l 386 1077 l 498 1219 "},"*":{"x_min":59.890625,"x_max":468.21875,"ha":540,"o":"m 84 897 l 59 838 l 212 783 l 107 643 l 155 605 l 261 752 l 362 602 l 415 636 l 313 783 l 468 834 l 447 895 l 292 837 l 292 1000 l 235 1000 l 235 837 l 84 897 "},"†":{"x_min":50.359375,"x_max":706.421875,"ha":772,"o":"m 337 -230 l 419 -230 l 419 605 l 706 605 l 706 680 l 419 680 l 419 1000 l 337 1000 l 337 680 l 50 680 l 50 605 l 337 605 l 337 -230 "},"∕":{"x_min":-222.75,"x_max":451,"ha":232,"o":"m -153 -19 l 451 979 l 381 979 l -222 -19 l -153 -19 "},"°":{"x_min":68.046875,"x_max":476.390625,"ha":556,"o":"m 476 770 b 272 979 476 884 383 979 b 68 770 159 979 66 884 b 272 562 68 655 159 562 b 476 770 383 562 476 655 m 421 770 b 272 618 421 686 353 618 b 122 770 189 618 122 686 b 270 923 121 854 189 923 b 421 770 353 923 421 854 "},"V":{"x_min":25.359375,"x_max":808,"ha":849,"o":"m 365 0 l 467 0 l 808 999 l 711 999 l 417 111 l 122 999 l 25 999 l 365 0 "},"å":{"x_min":62.609375,"x_max":726.828125,"ha":772,"o":"m 559 265 b 302 55 559 119 431 55 b 149 184 224 55 149 97 b 348 337 149 282 224 327 b 559 377 419 343 490 348 l 559 265 m 308 404 b 62 187 144 382 62 308 b 298 -19 62 48 174 -19 b 560 100 400 -19 492 22 b 626 -6 562 50 571 1 b 662 -11 638 -9 649 -11 b 726 2 686 -11 714 -1 l 726 68 b 641 123 657 43 641 58 l 641 515 b 385 738 641 682 528 738 b 95 501 231 738 107 670 l 178 501 b 383 663 193 626 270 663 b 559 518 510 663 559 602 b 529 443 559 493 556 455 b 421 419 502 430 451 422 l 308 404 m 379 802 b 514 940 453 802 514 865 b 379 1079 514 1013 453 1079 b 243 940 307 1079 243 1013 b 379 802 243 865 306 802 m 379 848 b 288 940 332 848 288 890 b 379 1033 288 990 330 1033 b 469 940 428 1033 469 988 b 379 848 469 891 427 848 "}," ":{"x_min":0,"x_max":0,"ha":386},"0":{"x_min":53.078125,"x_max":702.328125,"ha":772,"o":"m 615 481 b 378 55 615 284 585 55 b 140 472 194 55 140 220 b 375 904 140 688 185 904 b 615 481 578 904 615 693 m 378 979 b 53 481 102 979 53 729 b 378 -19 53 211 112 -19 b 702 472 642 -19 702 212 b 378 979 702 700 662 979 "},"”":{"x_min":107.53125,"x_max":412.421875,"ha":540,"o":"m 412 1000 l 313 1000 l 313 877 l 359 877 l 359 830 b 313 738 359 775 334 752 l 313 687 b 412 836 370 705 412 755 l 412 1000 m 206 1000 l 107 1000 l 107 877 l 153 877 l 153 830 b 107 738 153 775 129 752 l 107 687 b 206 836 164 705 206 755 l 206 1000 "},"¾":{"x_min":54,"x_max":1080.859375,"ha":1158,"o":"m 937 501 l 937 189 l 709 189 l 937 501 m 937 0 l 995 0 l 995 144 l 1080 144 l 1080 189 l 995 189 l 995 581 l 943 581 l 653 189 l 653 144 l 937 144 l 937 0 m 220 721 b 420 603 329 728 417 699 b 266 471 424 535 356 471 b 111 607 173 471 111 519 l 54 607 b 276 427 67 471 131 427 b 477 605 405 430 477 507 b 367 749 477 659 457 723 b 455 881 427 774 455 820 b 277 1026 455 978 375 1026 b 135 987 225 1026 175 1020 b 75 855 93 949 75 907 l 131 855 b 266 981 131 928 186 981 b 398 877 337 981 398 949 b 220 764 398 787 325 764 l 220 721 m 352 -19 l 957 978 l 887 978 l 282 -19 l 352 -19 "},"@":{"x_min":54.4375,"x_max":1034.453125,"ha":1111,"o":"m 931 231 b 570 42 849 112 710 42 b 136 494 325 42 136 242 b 567 956 136 745 315 956 b 952 591 773 956 952 817 b 736 253 952 444 849 253 b 713 366 681 253 692 305 l 850 785 l 759 785 l 739 721 b 586 813 711 781 650 813 b 249 392 385 813 249 578 b 438 184 249 278 321 184 b 600 253 495 184 559 210 b 717 181 616 203 669 181 b 1034 587 862 181 1034 367 b 564 1026 1034 841 826 1026 b 54 503 288 1026 54 792 b 570 -26 54 210 279 -26 b 1011 231 748 -26 925 70 l 931 231 m 458 271 b 352 399 389 271 352 333 b 589 731 352 526 445 731 b 683 630 645 731 683 684 b 458 271 683 505 582 273 "},"ö":{"x_min":51.71875,"x_max":705.0625,"ha":772,"o":"m 378 -19 b 705 359 575 -19 705 131 b 378 738 705 570 598 738 b 51 359 160 738 51 569 b 378 -19 51 108 198 -16 m 617 359 b 378 55 617 205 549 55 b 138 359 221 55 138 180 b 378 663 138 515 206 663 b 617 359 551 663 616 529 m 234 811 l 322 811 l 322 952 l 234 952 l 234 811 m 450 811 l 539 811 l 539 952 l 450 952 l 450 811 "},"i":{"x_min":106.171875,"x_max":196,"ha":308,"o":"m 191 0 l 191 719 l 110 719 l 110 0 l 191 0 m 196 876 l 196 1000 l 106 1000 l 106 876 l 196 876 "},"≤":{"x_min":70.78125,"x_max":700.96875,"ha":789,"o":"m 696 130 l 696 197 l 140 472 l 140 475 l 696 745 l 696 813 l 78 500 l 78 443 l 696 130 m 700 13 l 700 72 l 70 72 l 70 13 l 700 13 "},"Õ":{"x_min":72.125,"x_max":985.453125,"ha":1081,"o":"m 72 498 b 528 -26 72 211 225 -26 b 985 498 830 -26 985 211 b 524 1026 985 791 830 1026 b 72 498 231 1026 70 790 m 529 54 b 164 498 273 54 164 262 b 526 945 164 730 274 945 b 892 498 752 945 892 776 b 529 54 892 265 784 54 m 374 1094 b 441 1162 385 1129 400 1162 b 639 1100 503 1162 564 1100 b 740 1183 691 1100 721 1138 b 751 1236 744 1200 749 1218 l 699 1236 b 639 1166 692 1202 679 1166 b 472 1226 592 1166 522 1216 b 352 1176 426 1237 379 1215 b 325 1094 338 1154 328 1127 l 374 1094 "},"þ":{"x_min":107.53125,"x_max":755.421875,"ha":849,"o":"m 189 356 b 427 663 189 530 273 663 b 668 381 564 663 666 562 b 427 55 675 201 596 55 b 189 356 279 55 189 194 m 189 115 b 441 -19 240 27 341 -19 b 755 361 656 -19 755 159 b 436 738 755 573 664 738 b 191 593 347 738 239 687 l 189 593 l 189 1000 l 107 1000 l 107 -283 l 189 -283 l 189 115 "},"]":{"x_min":69.421875,"x_max":329.390625,"ha":463,"o":"m 329 1026 l 72 1026 l 72 956 l 242 956 l 242 -195 l 69 -195 l 69 -265 l 329 -265 l 329 1026 "},"m":{"x_min":87.109375,"x_max":1045.328125,"ha":1157,"o":"m 168 387 b 215 581 168 447 179 534 b 374 663 255 637 314 663 b 525 497 490 663 525 600 l 525 0 l 607 0 l 607 387 b 653 581 607 447 617 534 b 812 663 694 637 752 663 b 963 497 928 663 963 600 l 963 0 l 1045 0 l 1045 454 b 826 738 1045 598 1018 738 b 596 600 725 738 642 693 b 389 738 566 676 519 738 b 171 611 298 738 213 693 l 168 611 l 168 719 l 87 719 l 87 0 l 168 0 l 168 387 "},"8":{"x_min":59.890625,"x_max":696.890625,"ha":772,"o":"m 379 479 b 609 275 507 479 609 412 b 385 55 609 144 511 55 b 147 269 239 55 147 148 b 379 479 147 413 246 479 m 375 904 b 570 747 507 904 570 845 b 385 554 570 608 490 554 b 181 727 279 554 181 606 b 375 904 181 843 268 904 m 227 526 b 59 269 118 483 59 386 b 359 -19 59 77 220 -19 b 696 277 563 -19 696 86 b 526 520 696 391 631 481 b 657 740 617 566 657 638 b 367 979 657 908 514 979 b 93 740 216 984 93 875 b 227 526 93 623 134 586 "},"ž":{"x_min":45.046875,"x_max":635.953125,"ha":694,"o":"m 635 0 l 635 69 l 149 69 l 618 645 l 618 719 l 76 719 l 76 649 l 513 649 l 45 73 l 45 0 l 635 0 m 347 848 l 235 990 l 147 990 l 302 796 l 393 796 l 547 990 l 458 990 l 347 848 "},"R":{"x_min":108.890625,"x_max":833,"ha":926,"o":"m 201 534 l 201 919 l 495 919 b 733 733 619 919 733 883 b 490 534 733 593 627 534 l 201 534 m 492 454 b 687 331 585 454 665 440 b 730 0 702 255 692 68 l 833 0 l 833 9 b 792 222 808 29 796 70 b 666 493 789 327 782 452 b 826 737 779 544 826 611 b 492 1000 826 922 707 1000 l 108 1000 l 108 0 l 201 0 l 201 454 l 492 454 "},"á":{"x_min":62.609375,"x_max":726.828125,"ha":772,"o":"m 559 265 b 302 55 559 119 431 55 b 149 184 224 55 149 97 b 348 337 149 282 224 327 b 559 377 419 343 490 348 l 559 265 m 308 404 b 62 187 144 382 62 308 b 298 -19 62 48 174 -19 b 560 100 400 -19 492 22 b 626 -6 562 50 571 1 b 662 -11 638 -9 649 -11 b 726 2 686 -11 714 -1 l 726 68 b 641 123 657 43 641 58 l 641 515 b 385 738 641 682 528 738 b 95 501 231 738 107 670 l 178 501 b 383 663 193 626 270 663 b 559 518 510 663 559 602 b 529 443 559 493 556 455 b 421 419 502 430 451 422 l 308 404 m 370 797 l 556 990 l 451 990 l 300 797 l 370 797 "},"×":{"x_min":113,"x_max":787,"ha":917,"o":"m 450 299 l 736 8 l 787 58 l 501 351 l 787 644 l 736 694 l 450 402 l 163 694 l 113 644 l 400 351 l 113 58 l 163 8 l 450 299 "},"o":{"x_min":51.71875,"x_max":705.0625,"ha":772,"o":"m 378 -19 b 705 359 575 -19 705 131 b 378 738 705 570 598 738 b 51 359 160 738 51 569 b 378 -19 51 108 198 -16 m 617 359 b 378 55 617 205 549 55 b 138 359 221 55 138 180 b 378 663 138 515 206 663 b 617 359 551 663 616 529 "},"5":{"x_min":47.640625,"x_max":688.71875,"ha":772,"o":"m 47 254 b 385 -19 62 51 204 -19 b 688 305 543 -19 688 99 b 385 629 688 506 560 629 b 174 565 298 629 249 615 l 234 894 l 637 894 l 637 969 l 160 969 l 83 462 l 155 452 b 363 554 208 523 277 554 b 601 305 509 554 601 451 b 371 55 601 166 514 55 b 134 254 246 55 152 122 l 47 254 "},"õ":{"x_min":51.71875,"x_max":705.0625,"ha":772,"o":"m 378 -19 b 705 359 575 -19 705 131 b 378 738 705 570 598 738 b 51 359 160 738 51 569 b 378 -19 51 108 198 -16 m 617 359 b 378 55 617 205 549 55 b 138 359 221 55 138 180 b 378 663 138 515 206 663 b 617 359 551 663 616 529 m 223 813 b 289 881 234 848 249 881 b 488 819 352 881 413 819 b 589 902 540 819 570 858 b 600 955 593 919 598 937 l 548 955 b 488 886 541 922 528 886 b 321 945 441 886 371 936 b 201 895 274 956 228 934 b 174 813 187 873 176 847 l 223 813 "},"7":{"x_min":80.3125,"x_max":691.453125,"ha":772,"o":"m 80 880 l 586 880 b 206 0 402 650 225 283 l 302 0 b 691 886 313 191 416 569 l 691 969 l 80 969 l 80 880 "},"K":{"x_min":115.6875,"x_max":883.359375,"ha":926,"o":"m 208 0 l 208 386 l 362 543 l 770 0 l 883 0 l 428 601 l 815 1000 l 710 1000 l 208 481 l 208 1000 l 115 1000 l 115 0 l 208 0 "},",":{"x_min":138.828125,"x_max":238.1875,"ha":386,"o":"m 238 122 l 138 122 l 138 0 l 185 0 l 185 -47 b 138 -138 185 -102 160 -125 l 138 -190 b 238 -41 196 -172 238 -122 l 238 122 "},"d":{"x_min":76.21875,"x_max":724.109375,"ha":849,"o":"m 642 362 b 404 55 642 188 558 55 b 163 337 266 55 164 156 b 404 663 156 518 235 663 b 642 362 552 663 642 525 m 642 604 b 390 738 590 691 490 738 b 76 358 175 738 76 559 b 394 -19 76 145 167 -19 b 639 126 484 -19 592 31 l 642 126 l 642 0 l 724 0 l 724 1000 l 642 1000 l 642 604 "},"¨":{"x_min":81.671875,"x_max":386.5625,"ha":463,"o":"m 81 811 l 170 811 l 170 952 l 81 952 l 81 811 m 298 811 l 386 811 l 386 952 l 298 952 l 298 811 "},"Ô":{"x_min":72.125,"x_max":985.453125,"ha":1081,"o":"m 72 498 b 528 -26 72 211 225 -26 b 985 498 830 -26 985 211 b 524 1026 985 791 830 1026 b 72 498 231 1026 70 790 m 529 54 b 164 498 273 54 164 262 b 526 946 164 730 274 946 b 892 498 752 946 892 776 b 529 54 892 265 784 54 m 536 1219 l 647 1077 l 736 1077 l 582 1271 l 491 1271 l 336 1077 l 424 1077 l 536 1219 "},"E":{"x_min":110.25,"x_max":775.828125,"ha":849,"o":"m 775 0 l 775 80 l 202 80 l 202 477 l 707 477 l 707 558 l 202 558 l 202 919 l 762 919 l 762 1000 l 110 1000 l 110 0 l 775 0 "},"Y":{"x_min":16.328125,"x_max":813.953125,"ha":849,"o":"m 122 1000 l 16 1000 l 366 429 l 366 0 l 458 0 l 458 436 l 813 1000 l 706 1000 l 411 518 l 122 1000 "},"\"":{"x_min":77.578125,"x_max":299.4375,"ha":386,"o":"m 77 686 l 148 686 l 148 1000 l 77 1000 l 77 686 m 228 686 l 299 686 l 299 1000 l 228 1000 l 228 686 "},"‹":{"x_min":165.078125,"x_max":363.8125,"ha":540,"o":"m 165 317 l 363 163 l 363 249 l 222 360 l 363 474 l 363 562 l 165 404 l 165 317 "},"˙":{"x_min":182.390625,"x_max":270.859375,"ha":463,"o":"m 182 811 l 270 811 l 270 952 l 182 952 l 182 811 "},"ê":{"x_min":60.890625,"x_max":695.015625,"ha":772,"o":"m 148 409 b 384 663 164 545 240 663 b 607 409 531 663 607 549 l 148 409 m 695 340 b 384 738 696 598 577 738 b 60 356 183 738 60 566 b 384 -19 60 144 158 -19 b 689 220 564 -19 648 84 l 598 220 b 384 55 573 115 490 55 b 148 340 228 55 146 184 l 695 340 m 384 938 l 496 796 l 584 796 l 431 990 l 339 990 l 184 796 l 273 796 l 384 938 "},"Ï":{"x_min":16.328125,"x_max":321.21875,"ha":386,"o":"m 235 0 l 235 1000 l 142 1000 l 142 0 l 235 0 m 16 1091 l 104 1091 l 104 1233 l 16 1233 l 16 1091 m 232 1091 l 321 1091 l 321 1233 l 232 1233 l 232 1091 "},"„":{"x_min":107.53125,"x_max":412.421875,"ha":540,"o":"m 412 122 l 313 122 l 313 0 l 359 0 l 359 -47 b 313 -138 359 -102 334 -125 l 313 -190 b 412 -41 370 -172 412 -122 l 412 122 m 206 122 l 107 122 l 107 0 l 153 0 l 153 -47 b 107 -138 153 -102 129 -125 l 107 -190 b 206 -41 164 -172 206 -122 l 206 122 "},"Â":{"x_min":20.078125,"x_max":886,"ha":926,"o":"m 115 0 l 231 313 l 677 313 l 790 0 l 886 0 l 510 999 l 405 999 l 20 0 l 115 0 m 454 919 l 646 394 l 262 394 l 454 919 m 459 1219 l 571 1077 l 659 1077 l 506 1271 l 414 1271 l 259 1077 l 348 1077 l 459 1219 "},"Í":{"x_min":83.03125,"x_max":338.921875,"ha":386,"o":"m 235 0 l 235 1000 l 142 1000 l 142 0 l 235 0 m 152 1077 l 338 1270 l 234 1270 l 83 1077 l 152 1077 "},"´":{"x_min":148.109375,"x_max":404,"ha":463,"o":"m 217 797 l 404 990 l 299 990 l 148 797 l 217 797 "},"ì":{"x_min":-13.609375,"x_max":243.640625,"ha":308,"o":"m 187 0 l 187 719 l 106 719 l 106 0 l 187 0 m 174 797 l 243 797 l 92 990 l -13 990 l 174 797 "},"±":{"x_min":108.890625,"x_max":789.453125,"ha":917,"o":"m 408 458 l 108 458 l 108 375 l 408 375 l 408 138 l 490 138 l 490 375 l 789 375 l 789 458 l 490 458 l 490 694 l 408 694 l 408 458 m 108 0 l 789 0 l 789 83 l 108 83 l 108 0 "},"Ú":{"x_min":111.609375,"x_max":871.109375,"ha":1003,"o":"m 111 376 b 491 -26 111 120 235 -26 b 871 376 744 -26 871 116 l 871 1000 l 778 1000 l 778 404 b 491 54 778 168 702 54 b 204 404 291 54 204 156 l 204 1000 l 111 1000 l 111 376 m 483 1077 l 669 1270 l 564 1270 l 413 1077 l 483 1077 "},"|":{"x_min":110.25,"x_max":191.921875,"ha":308,"o":"m 110 1041 l 110 -347 l 191 -347 l 191 1041 l 110 1041 "},"§":{"x_min":65.40625,"x_max":691.875,"ha":772,"o":"m 494 473 b 618 319 548 440 618 393 b 497 162 618 243 557 195 l 254 322 b 138 476 201 358 138 405 b 258 620 138 544 186 590 l 494 473 m 382 141 b 533 -45 446 98 533 43 b 382 -176 533 -131 459 -176 b 211 1 269 -176 211 -112 l 128 1 b 381 -251 134 -152 227 -251 b 621 -36 512 -251 621 -177 b 542 116 621 47 561 98 b 691 333 621 170 691 226 b 226 816 691 575 226 626 b 378 951 226 908 292 951 b 547 777 494 951 544 893 l 621 777 b 385 1026 622 930 536 1026 b 138 825 224 1026 138 933 b 211 665 138 756 168 713 b 65 465 130 630 65 558 b 204 255 65 370 117 311 l 382 141 "},"Ý":{"x_min":16.328125,"x_max":813.953125,"ha":849,"o":"m 122 1000 l 16 1000 l 366 429 l 366 0 l 458 0 l 458 436 l 813 1000 l 706 1000 l 411 518 l 122 1000 m 406 1077 l 593 1270 l 488 1270 l 337 1077 l 406 1077 "},"b":{"x_min":107.53125,"x_max":755.421875,"ha":849,"o":"m 189 362 b 427 663 189 525 279 663 b 668 337 596 663 675 518 b 427 55 666 156 564 55 b 189 362 273 55 189 188 m 189 126 l 191 126 b 436 -19 239 31 347 -19 b 755 358 664 -19 755 145 b 441 738 755 559 656 738 b 189 604 341 738 240 691 l 189 1000 l 107 1000 l 107 0 l 189 0 l 189 126 "},"q":{"x_min":76.21875,"x_max":724.109375,"ha":849,"o":"m 642 362 b 404 55 642 188 558 55 b 163 337 266 55 164 156 b 404 663 156 518 235 663 b 642 362 552 663 642 525 m 642 593 l 639 593 b 394 738 592 687 484 738 b 76 361 167 738 76 573 b 390 -19 76 159 175 -19 b 642 115 490 -19 590 27 l 642 -283 l 724 -283 l 724 719 l 642 719 l 642 593 "},"Ω":{"x_min":72.140625,"x_max":914.671875,"ha":1007,"o":"m 281 66 l 72 66 l 72 0 l 389 0 l 389 48 b 170 501 279 119 170 293 b 496 909 170 726 296 909 b 816 504 707 909 816 687 b 597 48 816 281 707 122 l 597 0 l 914 0 l 914 66 l 702 66 l 702 70 b 895 516 797 148 895 308 b 498 977 895 765 736 977 b 91 511 270 977 91 791 b 281 70 91 312 181 159 l 281 66 "},"Ö":{"x_min":72.125,"x_max":985.453125,"ha":1081,"o":"m 72 498 b 528 -26 72 211 225 -26 b 985 498 830 -26 985 211 b 524 1026 985 791 830 1026 b 72 498 231 1026 70 790 m 529 54 b 164 498 273 54 164 262 b 526 945 164 730 274 945 b 892 498 752 945 892 776 b 529 54 892 265 784 54 m 385 1091 l 473 1091 l 473 1233 l 385 1233 l 385 1091 m 601 1091 l 690 1091 l 690 1233 l 601 1233 l 601 1091 "},"ﬂ":{"x_min":17.6875,"x_max":588,"ha":694,"o":"m 125 650 l 125 0 l 206 0 l 206 650 l 340 650 l 340 719 l 206 719 l 206 808 b 294 944 206 873 209 944 b 343 937 308 944 326 941 l 343 1013 b 274 1019 321 1018 299 1019 b 125 833 166 1019 125 947 l 125 719 l 17 719 l 17 650 l 125 650 m 588 0 l 588 1000 l 506 1000 l 506 0 l 588 0 "},"z":{"x_min":45.046875,"x_max":635.9375,"ha":694,"o":"m 635 0 l 635 69 l 149 69 l 618 645 l 618 719 l 76 719 l 76 650 l 513 650 l 45 73 l 45 0 l 635 0 "},"™":{"x_min":39.46875,"x_max":1169.203125,"ha":1306,"o":"m 1169 1000 l 1038 1000 l 877 568 l 875 568 l 711 1000 l 581 1000 l 581 415 l 651 415 l 651 938 l 654 938 l 852 415 l 898 415 l 1095 938 l 1098 938 l 1098 415 l 1169 415 l 1169 1000 m 475 1000 l 39 1000 l 39 944 l 221 944 l 221 415 l 292 415 l 292 944 l 475 944 l 475 1000 "},"ã":{"x_min":62.609375,"x_max":726.828125,"ha":772,"o":"m 559 265 b 302 55 559 119 431 55 b 149 184 224 55 149 97 b 348 337 149 282 224 327 b 559 377 419 343 490 348 l 559 265 m 308 404 b 62 187 144 382 62 308 b 298 -19 62 48 174 -19 b 560 100 400 -19 492 22 b 626 -6 562 50 571 1 b 662 -11 638 -9 649 -11 b 726 2 686 -11 714 -1 l 726 68 b 641 123 657 43 641 58 l 641 515 b 385 738 641 682 528 738 b 95 501 231 738 107 670 l 178 501 b 383 663 193 626 270 663 b 559 518 510 663 559 602 b 529 443 559 493 556 455 b 421 419 502 430 451 422 l 308 404 m 223 813 b 289 882 234 848 249 882 b 488 819 352 882 413 819 b 589 902 540 819 570 858 b 600 955 593 919 598 937 l 548 955 b 488 886 541 922 528 886 b 321 945 441 886 371 936 b 201 895 274 957 228 934 b 174 813 187 873 176 847 l 223 813 "},"æ":{"x_min":53.234375,"x_max":1153,"ha":1235,"o":"m 535 282 b 287 54 535 147 452 54 b 140 195 197 54 140 102 b 535 379 140 375 407 310 l 535 282 m 622 408 b 850 663 622 510 679 663 b 1065 408 993 663 1065 546 l 622 408 m 298 408 b 53 182 133 390 53 307 b 280 -20 53 43 153 -20 b 577 138 456 -20 525 65 b 849 -20 641 29 726 -20 b 1147 221 1007 -20 1112 67 l 1061 221 b 856 54 1034 118 963 54 b 622 339 688 54 622 183 l 1153 339 b 853 738 1153 560 1089 738 b 607 620 746 738 668 713 b 360 738 567 715 453 738 b 83 504 212 738 92 667 l 167 504 b 363 663 181 620 254 663 b 535 506 488 663 535 628 b 375 417 535 449 516 432 l 298 408 "},"®":{"x_min":28.578125,"x_max":1060.3125,"ha":1111,"o":"m 545 -26 b 1060 501 830 -26 1060 209 b 545 1026 1060 790 830 1026 b 28 501 259 1026 28 790 b 545 -26 28 209 259 -26 m 545 43 b 110 501 294 43 110 243 b 545 956 110 756 294 956 b 978 501 796 956 978 756 b 545 43 978 243 796 43 m 628 477 b 809 638 730 480 809 523 b 605 794 809 736 758 794 l 353 794 l 353 206 l 424 206 l 424 477 l 553 477 l 718 206 l 803 206 l 628 477 m 424 534 l 424 743 l 589 743 b 733 640 660 743 733 731 b 532 534 733 520 613 534 l 424 534 "},"É":{"x_min":110.25,"x_max":775.828125,"ha":849,"o":"m 775 0 l 775 80 l 202 80 l 202 477 l 707 477 l 707 558 l 202 558 l 202 919 l 762 919 l 762 1000 l 110 1000 l 110 0 l 775 0 m 406 1077 l 593 1270 l 488 1270 l 337 1077 l 406 1077 "},"~":{"x_min":109,"x_max":790,"ha":917,"o":"m 301 450 b 109 306 204 450 148 366 l 153 241 b 301 372 185 295 228 372 b 415 330 340 372 380 345 b 599 272 461 311 548 272 b 790 423 690 272 751 348 l 735 470 b 600 350 709 420 661 350 b 460 400 565 350 514 375 b 301 450 407 425 350 450 "},"³":{"x_min":15,"x_max":438.3125,"ha":463,"o":"m 181 722 b 381 604 289 729 378 700 b 227 472 385 536 317 472 b 72 608 134 472 72 519 l 15 608 b 236 427 28 472 92 427 b 438 605 366 430 438 508 b 328 750 438 659 417 723 b 416 881 387 775 416 820 b 238 1026 416 979 336 1026 b 96 987 186 1026 136 1020 b 36 855 54 950 36 908 l 92 855 b 227 981 92 929 147 981 b 359 877 298 981 359 950 b 181 765 359 787 285 765 l 181 722 "},"¡":{"x_min":176.9375,"x_max":276.3125,"ha":463,"o":"m 196 488 l 176 51 l 176 -259 l 276 -259 l 276 51 l 257 488 l 196 488 m 276 618 l 276 738 l 176 738 l 176 618 l 276 618 "},"[":{"x_min":123.859375,"x_max":383.828125,"ha":463,"o":"m 381 -265 l 381 -195 l 210 -195 l 210 956 l 383 956 l 383 1026 l 123 1026 l 123 -265 l 381 -265 "},"L":{"x_min":110.25,"x_max":728.203125,"ha":772,"o":"m 728 0 l 728 80 l 202 80 l 202 1000 l 110 1000 l 110 0 l 728 0 "}," ":{"x_min":0,"x_max":0,"ha":386},"∑":{"x_min":30.796875,"x_max":718.109375,"ha":767,"o":"m 718 -133 l 718 -56 l 132 -56 l 132 -52 l 498 422 l 158 887 l 158 891 l 697 891 l 697 961 l 47 961 l 47 905 l 409 412 l 30 -79 l 30 -133 l 718 -133 "},"%":{"x_min":91.1875,"x_max":1117.46875,"ha":1235,"o":"m 895 459 b 669 230 773 459 669 355 b 895 0 669 104 771 0 b 1117 230 1020 0 1117 104 b 895 459 1117 355 1019 459 m 894 380 b 1039 230 973 380 1039 311 b 894 79 1039 150 973 79 b 747 227 816 79 747 148 b 894 380 747 311 812 380 m 541 738 b 315 969 541 865 439 969 b 91 738 191 969 91 863 b 315 509 91 613 191 509 b 541 738 439 509 541 612 m 315 588 b 168 738 236 588 168 656 b 315 890 168 820 235 890 b 464 738 396 890 464 819 b 315 588 464 658 394 588 m 909 979 l 838 979 l 298 -19 l 368 -19 l 909 979 "},"P":{"x_min":106.171875,"x_max":784,"ha":849,"o":"m 198 0 l 198 441 l 408 441 b 784 720 589 441 784 497 b 464 1000 784 870 718 1000 l 106 1000 l 106 0 l 198 0 m 198 522 l 198 919 l 438 919 b 691 727 612 919 691 852 b 411 522 691 558 583 522 l 198 522 "},"∏":{"x_min":35.390625,"x_max":905.140625,"ha":961,"o":"m 905 888 l 905 961 l 35 961 l 35 888 l 189 888 l 189 -133 l 265 -133 l 265 888 l 675 888 l 675 -133 l 751 -133 l 751 888 l 905 888 "},"À":{"x_min":20.203125,"x_max":886,"ha":926,"o":"m 115 0 l 231 313 l 677 313 l 790 0 l 886 0 l 510 999 l 405 999 l 20 0 l 115 0 m 454 919 l 646 394 l 262 394 l 454 919 m 476 1077 l 545 1077 l 394 1270 l 288 1270 l 476 1077 "},"_":{"x_min":0,"x_max":680.5625,"ha":694,"o":"m 0 -104 l 0 -173 l 680 -173 l 680 -104 l 0 -104 "},"ñ":{"x_min":98,"x_max":657.421875,"ha":772,"o":"m 179 387 b 197 523 179 437 181 477 b 393 663 223 597 292 663 b 575 469 524 663 575 598 l 575 0 l 657 0 l 657 470 b 622 636 657 530 656 584 b 406 738 571 711 492 738 b 179 619 308 738 245 690 l 179 719 l 98 719 l 98 0 l 179 0 l 179 387 m 223 813 b 289 881 234 848 249 881 b 488 819 352 881 413 819 b 589 902 540 819 570 858 b 600 955 593 919 598 937 l 548 955 b 488 886 541 922 528 886 b 321 945 441 886 371 936 b 201 895 274 956 228 934 b 174 813 187 873 176 847 l 223 813 "},"+":{"x_min":108.890625,"x_max":789.453125,"ha":917,"o":"m 408 388 l 108 388 l 108 305 l 408 305 l 408 0 l 490 0 l 490 305 l 789 305 l 789 388 l 490 388 l 490 694 l 408 694 l 408 388 "},"‚":{"x_min":108.890625,"x_max":208.25,"ha":308,"o":"m 208 122 l 108 122 l 108 0 l 155 0 l 155 -47 b 108 -138 155 -102 130 -125 l 108 -190 b 208 -41 166 -172 208 -122 l 208 122 "},"½":{"x_min":54.4375,"x_max":1080.71875,"ha":1158,"o":"m 243 -19 l 847 979 l 778 979 l 174 -19 l 243 -19 m 215 438 l 272 438 l 272 1026 l 227 1026 b 54 911 208 925 149 916 l 54 875 l 215 875 l 215 438 m 745 394 b 882 543 743 473 800 543 b 1019 422 958 543 1019 498 b 715 143 1019 283 846 284 b 668 0 676 100 668 55 l 1075 0 l 1075 44 l 728 44 b 809 163 730 101 769 134 b 1080 425 902 230 1080 269 b 888 587 1080 515 1014 587 b 686 394 766 587 686 511 l 745 394 "},"Æ":{"x_min":6.8125,"x_max":1306.671875,"ha":1389,"o":"m 99 0 l 230 313 l 642 313 l 642 0 l 1306 0 l 1306 80 l 735 80 l 735 477 l 1239 477 l 1239 558 l 735 558 l 735 919 l 1290 919 l 1290 1000 l 432 1000 l 6 0 l 99 0 m 487 919 l 642 919 l 642 394 l 268 394 l 487 919 "},"Ë":{"x_min":110.25,"x_max":775.828125,"ha":849,"o":"m 775 0 l 775 80 l 202 80 l 202 477 l 707 477 l 707 558 l 202 558 l 202 919 l 762 919 l 762 1000 l 110 1000 l 110 0 l 775 0 m 270 1091 l 359 1091 l 359 1233 l 270 1233 l 270 1091 m 487 1091 l 575 1091 l 575 1233 l 487 1233 l 487 1091 "},"'":{"x_min":115.6875,"x_max":186.46875,"ha":308,"o":"m 115 686 l 186 686 l 186 1000 l 115 1000 l 115 686 "},"Š":{"x_min":58.53125,"x_max":771.75,"ha":849,"o":"m 58 298 b 413 -26 58 81 209 -26 b 771 265 639 -26 771 81 b 174 724 771 652 216 466 b 413 945 157 827 225 945 b 654 727 539 945 654 880 l 743 727 b 413 1026 744 890 634 1026 b 81 758 194 1026 81 897 b 679 260 81 365 679 570 b 430 53 679 151 605 53 b 148 298 280 53 163 119 l 58 298 m 421 1129 l 310 1271 l 221 1271 l 377 1077 l 468 1077 l 622 1271 l 533 1271 l 421 1129 "},"ª":{"x_min":10.890625,"x_max":442.359375,"ha":464,"o":"m 333 741 b 166 612 333 654 250 612 b 63 693 115 612 63 640 b 196 785 63 751 115 779 b 333 810 242 789 288 791 l 333 741 m 170 825 b 10 694 63 811 10 768 b 163 571 10 611 83 571 b 333 643 230 571 289 596 b 377 577 334 612 341 583 b 442 584 412 573 426 579 l 442 623 b 386 657 397 608 386 618 l 386 891 b 220 1026 386 991 313 1026 b 31 883 119 1026 39 985 l 85 883 b 219 985 95 958 145 985 b 333 893 300 985 333 944 b 314 848 333 878 332 855 b 243 835 296 840 262 836 l 170 825 "},"Œ":{"x_min":55.8125,"x_max":1316.203125,"ha":1389,"o":"m 744 306 b 677 129 744 234 733 177 b 481 54 626 84 549 54 b 148 501 247 54 148 240 b 470 945 148 794 265 945 b 744 691 641 945 744 856 l 744 306 m 748 0 l 1316 0 l 1316 80 l 837 80 l 837 477 l 1272 477 l 1272 558 l 837 558 l 837 919 l 1302 919 l 1302 1000 l 748 1000 l 748 894 b 470 1026 686 1000 586 1026 b 55 498 179 1026 55 788 b 475 -26 55 226 175 -26 b 748 100 607 -26 684 33 l 748 0 "},"˛":{"x_min":100.71875,"x_max":310.328125,"ha":463,"o":"m 202 0 b 100 -143 149 -27 100 -77 b 239 -263 100 -222 168 -263 b 310 -251 264 -263 287 -259 l 310 -190 b 253 -202 291 -198 273 -202 b 161 -123 206 -202 161 -177 b 270 -2 161 -68 227 -25 l 270 0 l 202 0 "},"ð":{"x_min":51.71875,"x_max":705.0625,"ha":772,"o":"m 617 359 b 378 55 617 205 549 55 b 138 359 221 55 138 180 b 378 664 138 515 206 664 b 617 359 551 664 616 529 m 447 881 b 571 675 500 833 539 769 b 372 738 506 727 462 738 b 51 359 147 738 51 548 b 378 -19 51 108 198 -16 b 705 359 575 -19 705 132 b 500 924 705 605 627 802 l 581 991 l 530 1026 l 455 963 b 348 1026 421 989 386 1009 l 292 980 b 401 919 334 960 370 941 l 313 847 l 364 813 l 447 881 "},"T":{"x_min":21.78125,"x_max":735,"ha":772,"o":"m 21 919 l 332 919 l 332 0 l 424 0 l 424 919 l 735 919 l 735 1000 l 21 1000 l 21 919 "},"š":{"x_min":62.578125,"x_max":618.03125,"ha":694,"o":"m 62 224 b 330 -19 69 88 164 -19 b 618 190 496 -19 618 52 b 166 539 618 466 166 344 b 325 663 166 613 221 663 b 516 512 427 663 501 623 l 598 512 b 326 738 578 674 479 738 b 78 532 170 738 78 652 b 530 188 78 249 530 396 b 356 55 530 119 475 55 b 145 224 234 55 171 101 l 62 224 m 347 848 l 235 990 l 146 990 l 302 796 l 393 796 l 547 990 l 458 990 l 347 848 "},"℮":{"x_min":46.671875,"x_max":1132.828125,"ha":1204,"o":"m 1132 465 l 1132 479 b 588 979 1132 755 890 979 b 46 479 288 979 46 755 b 588 -18 46 204 288 -18 b 1018 175 763 -18 921 58 l 940 175 b 589 9 855 75 731 9 b 257 156 460 9 343 66 b 245 187 250 166 245 176 l 245 459 b 253 465 245 463 248 465 l 1132 465 m 934 501 b 927 493 934 498 931 493 l 253 493 b 245 501 248 493 245 498 l 245 768 b 259 802 245 781 250 794 b 589 948 344 891 461 948 b 920 806 719 948 834 893 b 934 775 928 798 934 786 l 934 501 "},"Þ":{"x_min":106.171875,"x_max":784,"ha":849,"o":"m 198 0 l 198 233 l 408 233 b 784 512 589 233 784 288 b 464 791 784 662 718 791 l 198 791 l 198 1000 l 106 1000 l 106 0 l 198 0 m 198 313 l 198 711 l 438 711 b 691 519 612 711 691 644 b 411 313 691 350 583 313 l 198 313 "},"j":{"x_min":6.8125,"x_max":205.53125,"ha":308,"o":"m 119 719 l 119 -106 b 6 -204 119 -181 100 -216 l 6 -277 b 59 -283 24 -281 42 -283 b 201 -95 190 -283 201 -217 l 201 719 l 119 719 m 205 1000 l 115 1000 l 115 876 l 205 876 l 205 1000 "},"1":{"x_min":163.328125,"x_max":498.171875,"ha":772,"o":"m 411 0 l 498 0 l 498 979 l 428 979 b 163 786 400 811 308 795 l 163 727 l 411 727 l 411 0 "},"›":{"x_min":166.1875,"x_max":364.921875,"ha":540,"o":"m 364 407 l 166 562 l 166 475 l 307 364 l 166 250 l 166 163 l 364 320 l 364 407 "},"ı":{"x_min":106.171875,"x_max":187.828125,"ha":308,"o":"m 187 0 l 187 719 l 106 719 l 106 0 l 187 0 "},"ℓ":{"x_min":42.1875,"x_max":612.5,"ha":660,"o":"m 571 190 b 382 52 539 127 472 52 b 223 286 300 52 224 116 l 223 327 b 509 843 393 497 509 665 b 347 1059 509 962 457 1059 b 149 736 254 1059 149 988 l 149 348 b 42 252 117 315 80 286 l 69 202 b 149 270 96 226 125 251 l 149 252 b 368 -11 153 112 215 -11 b 612 156 473 -11 556 48 l 571 190 m 223 744 b 345 998 223 933 291 998 b 450 838 421 998 450 931 b 223 409 450 690 349 548 l 223 744 "},"ä":{"x_min":62.609375,"x_max":726.828125,"ha":772,"o":"m 559 265 b 302 55 559 119 431 55 b 149 184 224 55 149 97 b 348 337 149 282 224 327 b 559 377 419 343 490 348 l 559 265 m 308 404 b 62 187 144 382 62 308 b 298 -19 62 48 174 -19 b 560 100 400 -19 492 22 b 626 -6 562 50 571 1 b 662 -11 638 -9 649 -11 b 726 2 686 -11 714 -1 l 726 68 b 641 123 657 43 641 58 l 641 515 b 385 738 641 682 528 738 b 95 501 231 738 107 670 l 178 501 b 383 663 193 626 270 663 b 559 518 510 663 559 602 b 529 443 559 493 556 455 b 421 419 502 430 451 422 l 308 404 m 234 811 l 322 811 l 322 952 l 234 952 l 234 811 m 450 811 l 539 811 l 539 952 l 450 952 l 450 811 "},"<":{"x_min":109.0625,"x_max":789.625,"ha":917,"o":"m 216 354 l 789 612 l 789 701 l 109 392 l 109 318 l 789 -8 l 789 80 l 216 354 "},"£":{"x_min":33.796875,"x_max":720.640625,"ha":772,"o":"m 249 507 b 158 721 213 578 158 637 b 376 904 158 844 267 904 b 594 678 505 904 588 823 l 683 678 b 374 979 686 864 554 979 b 71 725 173 979 71 871 b 144 507 71 614 120 558 l 33 507 l 33 448 l 168 448 b 196 326 187 409 196 369 b 52 76 196 223 131 134 l 100 -4 b 243 41 145 16 191 41 b 376 11 293 41 336 26 b 483 -19 415 -3 451 -19 b 720 78 592 -19 640 2 l 674 148 b 527 69 632 107 591 69 b 414 98 482 69 449 83 b 278 128 379 114 339 128 b 157 90 234 128 191 108 l 154 93 b 285 354 221 162 285 250 b 270 448 285 384 278 419 l 475 448 l 475 507 l 249 507 "},"¹":{"x_min":118.421875,"x_max":336.1875,"ha":463,"o":"m 279 438 l 336 438 l 336 1026 l 291 1026 b 118 911 272 925 213 916 l 118 875 l 279 875 l 279 438 "},"t":{"x_min":27.21875,"x_max":345.71875,"ha":386,"o":"m 345 65 b 279 55 323 59 300 55 b 208 156 210 55 208 86 l 208 650 l 340 650 l 340 719 l 208 719 l 208 919 l 126 919 l 126 719 l 27 719 l 27 650 l 126 650 l 126 123 b 251 -19 126 16 171 -19 b 345 -2 291 -19 326 -6 l 345 65 "},"¬":{"x_min":108.890625,"x_max":789.453125,"ha":917,"o":"m 702 155 l 789 155 l 789 525 l 108 525 l 108 441 l 702 441 l 702 155 "},"ù":{"x_min":98,"x_max":657.421875,"ha":772,"o":"m 575 327 b 360 55 575 169 495 55 b 179 247 232 55 179 123 l 179 719 l 98 719 l 98 245 b 348 -19 98 95 160 -19 b 575 100 472 -19 532 50 l 575 0 l 657 0 l 657 719 l 575 719 l 575 327 m 401 797 l 470 797 l 319 990 l 213 990 l 401 797 "},"W":{"x_min":19,"x_max":1191,"ha":1235,"o":"m 656 1000 l 552 1000 l 325 133 l 322 133 l 111 1000 l 19 1000 l 272 0 l 374 0 l 601 883 l 604 883 l 831 0 l 933 0 l 1191 1000 l 1095 1000 l 882 133 l 879 133 l 656 1000 "},"ï":{"x_min":-21.78125,"x_max":283.109375,"ha":308,"o":"m 187 0 l 187 719 l 106 719 l 106 0 l 187 0 m -21 811 l 66 811 l 66 952 l -21 952 l -21 811 m 194 811 l 283 811 l 283 952 l 194 952 l 194 811 "},">":{"x_min":109.375,"x_max":789.9375,"ha":917,"o":"m 789 392 l 109 701 l 109 612 l 682 354 l 109 80 l 109 -8 l 789 318 l 789 392 "},"v":{"x_min":22.71875,"x_max":657,"ha":694,"o":"m 292 0 l 383 0 l 657 719 l 568 719 l 339 103 l 111 719 l 22 719 l 292 0 "},"û":{"x_min":98.28125,"x_max":657.703125,"ha":772,"o":"m 576 327 b 360 55 576 169 495 55 b 179 246 233 55 179 123 l 179 719 l 98 719 l 98 245 b 348 -19 98 95 160 -19 b 576 99 472 -19 532 49 l 576 0 l 657 0 l 657 719 l 576 719 l 576 327 m 385 938 l 497 796 l 585 796 l 431 990 l 340 990 l 185 796 l 273 796 l 385 938 "},"Ò":{"x_min":72.125,"x_max":985.453125,"ha":1081,"o":"m 72 498 b 528 -26 72 211 225 -26 b 985 498 830 -26 985 211 b 524 1026 985 791 830 1026 b 72 498 231 1026 70 790 m 529 54 b 164 498 273 54 164 262 b 526 945 164 730 274 945 b 892 498 752 945 892 776 b 529 54 892 265 784 54 m 552 1077 l 622 1077 l 470 1270 l 364 1270 l 552 1077 "},"&":{"x_min":55.703125,"x_max":876.453125,"ha":926,"o":"m 617 181 b 368 48 552 102 473 48 b 148 263 243 48 148 131 b 338 520 148 372 231 469 l 617 181 m 514 750 b 370 618 487 687 424 651 b 268 805 334 661 268 745 b 398 925 268 879 330 925 b 514 750 500 925 547 825 m 417 555 b 611 806 519 618 611 673 b 405 1000 611 912 526 1000 b 185 804 285 1000 185 930 b 289 580 185 716 236 643 b 55 270 164 520 55 420 b 361 -26 55 91 191 -26 b 670 118 492 -26 586 13 l 766 0 l 876 0 l 717 191 b 785 452 766 269 781 362 l 704 452 b 664 258 704 384 698 316 l 417 555 "},"˝":{"x_min":147.796875,"x_max":624,"ha":463,"o":"m 217 797 l 403 990 l 298 990 l 147 797 l 217 797 m 437 797 l 624 990 l 519 990 l 368 797 l 437 797 "},"Ð":{"x_min":13.609375,"x_max":910.578125,"ha":1003,"o":"m 202 919 l 424 919 b 649 881 506 919 590 913 b 818 501 786 806 818 647 b 654 126 818 365 785 194 b 424 80 579 86 507 80 l 202 80 l 202 490 l 421 490 l 421 570 l 202 570 l 202 919 m 110 570 l 13 570 l 13 490 l 110 490 l 110 0 l 445 0 b 792 122 574 0 702 19 b 910 501 882 222 910 369 b 747 925 910 634 876 829 b 445 1000 656 993 553 1000 l 110 1000 l 110 570 "},"I":{"x_min":142.921875,"x_max":235.46875,"ha":386,"o":"m 235 0 l 235 1000 l 142 1000 l 142 0 l 235 0 "},"ˉ":{"x_min":31.3125,"x_max":434.1875,"ha":463,"o":"m 31 850 l 434 850 l 434 912 l 31 912 l 31 850 "},"G":{"x_min":72.15625,"x_max":946,"ha":1081,"o":"m 857 436 b 815 229 856 361 846 291 b 519 54 751 100 626 54 b 164 468 295 54 164 247 b 532 945 164 751 273 945 b 839 709 677 945 807 859 l 935 709 b 525 1026 892 923 730 1026 b 72 505 216 1026 72 798 b 500 -26 72 150 253 -26 b 867 170 694 -26 799 51 l 867 0 l 946 0 l 946 516 l 526 516 l 526 436 l 857 436 "},"`":{"x_min":60.75,"x_max":318,"ha":463,"o":"m 248 797 l 318 797 l 166 990 l 60 990 l 248 797 "},"·":{"x_min":122.5,"x_max":254.53125,"ha":386,"o":"m 189 552 b 122 486 155 552 122 522 b 189 418 122 450 152 418 b 254 486 225 418 254 450 b 189 552 254 522 224 552 "},"r":{"x_min":102.078125,"x_max":416.5,"ha":463,"o":"m 183 352 b 416 648 183 513 232 652 l 416 738 b 186 584 298 738 231 700 l 183 584 l 183 719 l 102 719 l 102 0 l 183 0 l 183 352 "},"¿":{"x_min":38.109375,"x_max":629.796875,"ha":694,"o":"m 545 22 b 337 -212 549 -109 470 -212 b 125 -33 202 -212 125 -133 b 311 227 125 69 232 143 b 386 486 382 304 387 384 l 307 486 b 279 320 307 430 308 369 b 38 -26 200 193 38 134 b 334 -287 38 -183 149 -287 b 628 22 511 -287 642 -162 l 545 22 m 295 738 l 295 616 l 394 616 l 394 738 l 295 738 "},"ý":{"x_min":25,"x_max":657,"ha":694,"o":"m 93 -273 b 170 -283 114 -279 142 -283 b 394 9 283 -283 327 -170 l 657 719 l 568 719 l 342 101 l 116 719 l 25 719 l 298 -5 b 161 -204 267 -68 253 -204 b 93 -195 138 -204 114 -200 l 93 -273 m 332 797 l 519 990 l 414 990 l 263 797 l 332 797 "},"x":{"x_min":25,"x_max":655,"ha":694,"o":"m 557 0 l 655 0 l 391 372 l 645 719 l 542 719 l 342 433 l 147 719 l 46 719 l 295 372 l 25 0 l 124 0 l 343 311 l 557 0 "},"è":{"x_min":60.890625,"x_max":695.015625,"ha":772,"o":"m 148 409 b 384 663 164 545 240 663 b 607 409 531 663 607 550 l 148 409 m 695 340 b 384 738 696 598 577 738 b 60 356 183 738 60 566 b 384 -19 60 144 158 -19 b 689 220 564 -19 648 84 l 598 220 b 384 55 573 115 490 55 b 148 340 228 55 146 184 l 695 340 m 401 797 l 470 797 l 319 990 l 213 990 l 401 797 "},"º":{"x_min":14.96875,"x_max":439.640625,"ha":464,"o":"m 227 570 b 439 798 355 570 439 662 b 227 1026 439 925 370 1026 b 14 798 85 1026 14 925 b 227 570 14 648 110 573 m 68 798 b 227 984 68 891 115 984 b 386 798 340 984 386 900 b 227 612 386 706 338 612 b 68 798 125 612 68 691 "},"Ø":{"x_min":57.171875,"x_max":1001.78125,"ha":1081,"o":"m 236 204 b 160 498 185 284 160 387 b 522 945 160 729 270 945 b 778 838 647 945 726 897 l 236 204 m 822 777 b 888 498 868 697 888 595 b 525 54 888 263 779 54 b 281 148 420 54 338 90 l 822 777 m 835 905 b 519 1026 751 990 642 1026 b 68 498 234 1026 68 794 b 178 136 68 356 104 229 l 57 -4 l 110 -51 l 225 83 b 524 -26 300 13 400 -26 b 981 498 826 -26 981 211 b 883 850 981 663 935 790 l 1001 988 l 948 1037 l 835 905 "},"∞":{"x_min":70.78125,"x_max":982.71875,"ha":1075,"o":"m 982 401 b 789 608 982 522 907 608 b 533 438 677 608 608 523 b 279 608 460 523 381 608 b 70 394 157 608 70 516 b 269 186 70 277 160 186 b 528 354 381 186 455 270 b 779 186 624 247 691 186 b 982 400 886 186 982 269 l 982 401 m 277 240 b 129 393 187 240 129 309 b 268 555 127 477 179 555 b 498 393 368 555 435 468 b 279 240 439 333 368 240 l 277 240 m 784 555 b 925 395 864 555 925 498 b 785 240 925 319 873 240 b 562 398 710 240 654 297 b 782 555 611 448 687 555 l 784 555 "},"μ":{"x_min":98,"x_max":657.421875,"ha":772,"o":"m 575 328 b 360 56 575 169 495 56 b 179 247 232 56 179 124 l 179 719 l 98 719 l 98 -282 l 179 -282 l 179 25 b 348 -19 215 3 272 -19 b 575 100 472 -19 532 50 l 575 0 l 657 0 l 657 719 l 575 719 l 575 328 "},"÷":{"x_min":108.890625,"x_max":789.453125,"ha":917,"o":"m 108 305 l 789 305 l 789 388 l 108 388 l 108 305 m 499 0 l 499 122 l 400 122 l 400 0 l 499 0 m 499 572 l 499 694 l 400 694 l 400 572 l 499 572 "},"h":{"x_min":98,"x_max":657.421875,"ha":772,"o":"m 179 0 l 179 387 b 197 523 179 437 181 477 b 393 663 223 597 292 663 b 575 469 524 663 575 598 l 575 0 l 657 0 l 657 470 b 622 636 657 530 656 584 b 406 738 571 711 492 738 b 179 619 308 738 245 690 l 179 1000 l 98 1000 l 98 0 l 179 0 "},".":{"x_min":138.828125,"x_max":238.1875,"ha":386,"o":"m 238 0 l 238 122 l 138 122 l 138 0 l 238 0 "},";":{"x_min":138.828125,"x_max":238.1875,"ha":386,"o":"m 238 122 l 138 122 l 138 0 l 185 0 l 185 -47 b 138 -138 185 -102 160 -125 l 138 -190 b 238 -41 196 -172 238 -122 l 238 122 m 238 561 l 238 683 l 138 683 l 138 561 l 238 561 "},"f":{"x_min":27.21875,"x_max":349.8125,"ha":386,"o":"m 132 650 l 132 0 l 213 0 l 213 650 l 349 650 l 349 719 l 213 719 l 213 808 b 300 944 213 873 216 944 b 349 937 315 944 333 941 l 349 1013 b 281 1019 328 1018 306 1019 b 132 833 172 1019 132 947 l 132 719 l 27 719 l 27 650 l 132 650 "},"“":{"x_min":117.0625,"x_max":421.9375,"ha":540,"o":"m 322 687 l 421 687 l 421 809 l 375 809 l 375 856 b 421 948 375 912 400 934 l 421 1000 b 322 851 364 981 322 931 l 322 687 m 117 687 l 216 687 l 216 809 l 170 809 l 170 856 b 216 948 170 912 194 934 l 216 1000 b 117 851 159 981 117 931 l 117 687 "},"A":{"x_min":20.25,"x_max":886,"ha":926,"o":"m 115 0 l 231 313 l 677 313 l 790 0 l 886 0 l 510 999 l 405 999 l 20 0 l 115 0 m 454 919 l 646 394 l 262 394 l 454 919 "},"6":{"x_min":56.21875,"x_max":700.015625,"ha":772,"o":"m 685 738 b 404 979 667 895 555 979 b 56 448 122 979 56 680 b 392 -19 56 102 200 -19 b 700 298 587 -19 700 101 b 395 613 700 494 588 613 b 143 461 254 613 197 536 b 412 904 156 645 177 904 b 595 738 514 904 576 838 l 685 738 m 392 538 b 612 301 542 538 612 452 b 393 55 612 183 555 55 b 175 295 235 55 175 186 b 392 538 175 427 257 538 "},"‘":{"x_min":93.921875,"x_max":193.28125,"ha":308,"o":"m 93 687 l 193 687 l 193 809 l 147 809 l 147 856 b 193 948 147 912 171 934 l 193 1000 b 93 851 136 981 93 931 l 93 687 "},"π":{"x_min":14.96875,"x_max":733.640625,"ha":779,"o":"m 725 644 l 733 713 l 201 713 b 14 679 100 713 49 698 l 28 626 b 187 644 57 637 95 644 b 84 0 179 448 137 144 l 161 0 b 265 644 212 126 257 456 l 532 644 l 532 193 b 555 0 532 75 543 20 l 631 0 b 611 202 620 34 611 83 l 611 644 l 725 644 "},"O":{"x_min":72.125,"x_max":985.453125,"ha":1081,"o":"m 72 498 b 528 -26 72 211 225 -26 b 985 498 830 -26 985 211 b 524 1026 985 791 830 1026 b 72 498 231 1026 70 790 m 529 54 b 164 498 273 54 164 262 b 526 945 164 730 274 945 b 892 498 752 945 892 776 b 529 54 892 265 784 54 "},"n":{"x_min":98,"x_max":657.421875,"ha":772,"o":"m 179 387 b 197 523 179 437 181 477 b 393 663 223 597 292 663 b 575 469 524 663 575 598 l 575 0 l 657 0 l 657 470 b 622 636 657 530 656 584 b 406 738 571 711 492 738 b 179 619 308 738 245 690 l 179 719 l 98 719 l 98 0 l 179 0 l 179 387 "},"3":{"x_min":46,"x_max":696.609375,"ha":772,"o":"m 300 472 b 609 276 469 484 604 434 b 371 55 614 161 510 55 b 133 283 229 55 133 134 l 46 283 b 387 -19 66 55 165 -19 b 696 277 585 -13 696 116 b 526 519 696 368 665 475 b 662 737 619 559 662 636 b 389 979 662 901 540 979 b 171 913 310 979 231 969 b 78 694 107 852 78 781 l 165 694 b 371 904 165 816 248 904 b 575 731 481 904 575 852 b 300 544 575 581 462 543 l 300 472 "},"9":{"x_min":55.984375,"x_max":701.140625,"ha":772,"o":"m 72 215 b 351 -19 87 55 201 -19 b 701 484 554 -19 701 152 b 364 979 701 758 623 979 b 55 655 155 979 55 840 b 352 340 55 465 173 340 b 611 493 467 340 552 394 l 614 490 b 347 55 605 313 574 55 b 160 215 241 55 181 111 l 72 215 m 364 904 b 580 658 499 901 580 802 b 364 415 580 526 501 415 b 143 652 224 415 143 504 b 364 904 143 805 217 901 "},"l":{"x_min":110.25,"x_max":191.921875,"ha":308,"o":"m 191 0 l 191 1000 l 110 1000 l 110 0 l 191 0 "},"¤":{"x_min":37,"x_max":719.984375,"ha":772,"o":"m 43 152 l 114 78 l 174 138 b 371 69 234 95 296 69 b 582 138 449 69 521 92 l 642 78 l 713 152 l 654 210 b 719 409 696 274 719 331 b 654 626 719 494 700 558 l 713 686 l 642 759 l 582 699 b 383 768 521 743 458 768 b 174 699 307 768 235 747 l 114 759 l 43 686 l 102 626 b 37 416 56 559 37 498 b 102 210 37 337 58 276 l 43 152 m 383 667 b 623 420 515 670 623 552 b 375 167 623 279 511 167 b 134 416 245 167 132 281 b 383 667 132 561 242 670 "},"∂":{"x_min":59.890625,"x_max":660.140625,"ha":746,"o":"m 137 941 b 319 1006 175 972 235 1006 b 583 575 460 1006 583 841 b 582 509 583 555 583 527 l 581 509 b 347 650 559 552 477 650 b 59 301 197 650 59 515 b 314 -13 59 143 141 -13 b 660 554 545 -13 660 240 b 326 1073 660 909 495 1073 b 107 998 220 1073 152 1034 l 137 941 m 319 52 b 137 304 209 52 137 158 b 357 584 137 459 239 584 b 571 422 470 584 548 487 b 322 52 551 225 461 52 l 319 52 "},"4":{"x_min":49,"x_max":707.78125,"ha":772,"o":"m 487 0 l 574 0 l 574 241 l 707 241 l 707 316 l 574 316 l 574 969 l 495 969 l 49 318 l 49 241 l 487 241 l 487 0 m 487 836 l 487 316 l 134 316 l 487 836 "},"p":{"x_min":107.53125,"x_max":755.421875,"ha":849,"o":"m 189 356 b 427 663 189 530 273 663 b 668 381 564 663 666 562 b 427 55 675 201 596 55 b 189 356 279 55 189 194 m 189 115 b 441 -19 240 27 341 -19 b 755 361 656 -19 755 159 b 436 738 755 573 664 738 b 191 593 347 738 239 687 l 189 593 l 189 719 l 107 719 l 107 -283 l 189 -283 l 189 115 "},"‡":{"x_min":50.359375,"x_max":706.421875,"ha":772,"o":"m 337 151 l 50 151 l 50 76 l 337 76 l 337 -230 l 419 -230 l 419 76 l 706 76 l 706 151 l 419 151 l 419 615 l 706 615 l 706 690 l 419 690 l 419 1000 l 337 1000 l 337 690 l 50 690 l 50 615 l 337 615 l 337 151 "},"à":{"x_min":62.609375,"x_max":726.828125,"ha":772,"o":"m 559 265 b 302 55 559 119 431 55 b 149 184 224 55 149 97 b 348 337 149 282 224 327 b 559 377 419 343 490 348 l 559 265 m 308 404 b 62 187 144 382 62 308 b 298 -19 62 48 174 -19 b 560 100 400 -19 492 22 b 626 -6 562 50 571 1 b 662 -11 638 -9 649 -11 b 726 2 686 -11 714 -1 l 726 68 b 641 123 657 43 641 58 l 641 515 b 385 738 641 682 528 738 b 95 501 231 738 107 670 l 178 501 b 383 663 193 626 270 663 b 559 518 510 663 559 602 b 529 443 559 493 556 455 b 421 419 502 430 451 422 l 308 404 m 401 797 l 470 797 l 319 990 l 213 990 l 401 797 "},"Ü":{"x_min":111.609375,"x_max":871.109375,"ha":1003,"o":"m 111 376 b 491 -26 111 120 235 -26 b 871 376 744 -26 871 116 l 871 1000 l 778 1000 l 778 404 b 491 54 778 168 702 54 b 204 404 291 54 204 156 l 204 1000 l 111 1000 l 111 376 m 347 1091 l 435 1091 l 435 1233 l 347 1233 l 347 1091 m 563 1091 l 651 1091 l 651 1233 l 563 1233 l 563 1091 "},"ó":{"x_min":51.71875,"x_max":705.0625,"ha":772,"o":"m 378 -19 b 705 359 575 -19 705 131 b 378 738 705 570 598 738 b 51 359 160 738 51 569 b 378 -19 51 108 198 -16 m 617 359 b 378 55 617 205 549 55 b 138 359 221 55 138 180 b 378 663 138 515 206 663 b 617 359 551 663 616 529 m 370 797 l 556 990 l 451 990 l 300 797 l 370 797 "},"√":{"x_min":48,"x_max":765,"ha":783,"o":"m 765 1138 l 703 1138 l 442 -20 b 426 -112 437 -51 430 -87 l 424 -112 b 401 -18 419 -86 409 -50 l 216 520 l 48 452 l 65 402 l 167 440 l 389 -209 l 462 -209 l 765 1138 "}}}
